<svg width="920" height="544" viewBox="0 0 920 544" fill="none" xmlns="http://www.w3.org/2000/svg">
<path d="M918 68.5714V475.394C901.69 475.637 889.273 479.839 879.843 486.122C870.135 492.59 863.682 501.203 859.396 509.77C855.112 518.332 852.978 526.876 851.912 533.266C851.379 536.465 851.111 539.134 850.977 541.009C850.936 541.583 850.908 542.082 850.888 542.5H69.1466C68.9035 526.2 64.6989 513.79 58.4121 504.366C51.9403 494.664 43.3219 488.215 34.7493 483.931C26.1826 479.65 17.6341 477.517 11.2398 476.452C8.03918 475.919 5.36868 475.652 3.49249 475.518C2.91839 475.477 2.41838 475.448 2 475.429V68.6058C18.3103 68.363 30.7272 64.161 40.1572 57.8782C49.8649 51.4103 56.318 42.7972 60.6045 34.2296C64.8879 25.6679 67.0222 17.1243 68.0879 10.7338C68.6214 7.53495 68.8887 4.86599 69.0227 2.99086C69.0637 2.41745 69.0922 1.91799 69.1121 1.5H850.853C851.096 17.8004 855.301 30.21 861.588 39.6343C868.06 49.3363 876.678 55.7854 885.251 60.0691C893.817 64.3498 902.366 66.4827 908.76 67.5478C911.961 68.0809 914.631 68.3481 916.508 68.482C917.082 68.523 917.582 68.5515 918 68.5714Z" stroke="black" stroke-width="3"/>

<defs>
</defs>
</svg>
