<svg width="135" height="60" viewBox="0 0 135 60" fill="none" xmlns="http://www.w3.org/2000/svg">
<path d="M4.73212 16.3641V3.50589H0V2.30347H10.7636V3.50589H6.03152V16.3641H4.73212Z" fill="white"/>
<path d="M21.8121 2.30347H23.1115V16.3641H21.8121V9.69256H13.5309V16.3641H12.2315V2.30347H13.5309V8.47074H21.8121V2.30347Z" fill="white"/>
<path d="M26.2611 16.3641V2.30347H35.2792V3.50589H27.5605V8.47074H34.8138V9.69256H27.5605V15.1616H35.2792V16.3641H26.2611Z" fill="white"/>
<path d="M1.66788 36.3641V22.3035H6.45818C8.99879 22.3035 11.2097 23.0016 11.2097 25.8526C11.2097 27.3459 10.4533 28.4707 9.38667 28.9556C11.0739 29.4404 11.7915 30.6235 11.7915 32.3107C11.7915 35.2198 9.63879 36.3641 6.90424 36.3641H1.66788ZM2.96727 29.615V35.181H6.98182C9.30909 35.181 10.4145 34.1726 10.4145 32.3301C10.4145 30.4101 9.32849 29.615 6.86545 29.615H2.96727ZM2.96727 23.4865V28.4901H6.7103C8.6303 28.4901 9.85212 27.8695 9.85212 25.9301C9.85212 24.2235 8.6497 23.4865 6.76849 23.4865H2.96727Z" fill="white"/>
<path d="M13.9121 22.3035H15.2115V30.9144C15.2115 33.9398 16.3364 35.375 19.3036 35.375C22.3485 35.375 23.4345 33.7265 23.4345 30.6817V22.3035H24.7339V30.5265C24.7339 34.6186 23.2794 36.6162 19.3036 36.6162C15.483 36.6162 13.9121 35.0453 13.9121 30.6817V22.3035Z" fill="white"/>
<path d="M25.7061 22.3035H27.1606L31.3885 29.7507L35.7521 22.3035H37.2455L31.9897 31.0889V36.3641H30.6903V31.0501L25.7061 22.3035Z" fill="white"/>
<path d="M38.5292 36.3641V22.3035H47.5474V23.5059H39.8286V28.4707H47.082V29.6926H39.8286V35.1616H47.5474V36.3641H38.5292Z" fill="white"/>
<path d="M58.3292 36.3641L55.0129 30.1192C54.8383 30.1386 54.6444 30.158 54.4311 30.158H50.9983V36.3641H49.6989V22.3035H53.8299C57.185 22.3035 59.5705 22.9047 59.5705 26.1629C59.5705 28.5095 58.3292 29.5956 56.3705 29.9641L59.7838 36.3641H58.3292ZM54.0044 23.4865H50.9983V28.975H54.0044C56.3317 28.975 58.2129 28.6841 58.2129 26.2016C58.2129 23.7192 56.3317 23.4865 54.0044 23.4865Z" fill="white"/>
<path d="M61.5409 24.1265V22.3035H63.2282V24.2816L62.2585 26.8029H61.3664L62.2003 24.1265H61.5409Z" fill="white"/>
<path d="M65.0883 25.7556C65.0883 23.1762 67.7065 22.0513 69.9756 22.0513C72.7683 22.0513 74.6883 23.3895 75.212 25.8138H73.8544C73.3696 24.1847 72.012 23.2926 69.8399 23.2926C68.4435 23.2926 66.4265 23.855 66.4265 25.6974C66.4265 27.1132 67.5708 27.8113 69.1417 28.1798L70.8095 28.5483C72.8265 29.0138 75.5417 29.8089 75.5417 32.5047C75.5417 35.2004 73.0786 36.6162 70.3441 36.6162C66.8338 36.6162 64.8944 34.6574 64.5841 32.1362H65.9417C66.4265 34.4053 67.9586 35.375 70.2859 35.375C71.818 35.375 74.1841 34.8126 74.1841 32.718C74.1841 31.0113 72.5162 30.1968 70.538 29.7701L68.7732 29.3823C66.9308 28.975 65.0883 28.0635 65.0883 25.7556Z" fill="white"/>
<path d="M7.17576 42.0513C10.2012 42.0513 12.3733 43.5835 12.9939 46.5313H11.6364C11.0545 44.1847 9.07636 43.2926 7.13697 43.2926C4.34424 43.2926 2.15273 45.4453 2.15273 49.3241C2.15273 53.0671 4.1503 55.375 7.04 55.375C9.11515 55.375 11.7333 54.5604 11.7333 51.1665V50.6429H7.79636V49.4404H12.9745V56.3641H11.8303L11.8109 54.3859C10.9576 55.7241 9.48364 56.6162 7.02061 56.6162C2.98667 56.6162 0.775758 53.5713 0.775758 49.3241C0.775758 45.038 3.16121 42.0513 7.17576 42.0513Z" fill="white"/>
<path d="M15.7114 42.3035H17.0108V50.9144C17.0108 53.9398 18.1356 55.375 21.1029 55.375C24.1477 55.375 25.2338 53.7265 25.2338 50.6817V42.3035H26.5332V50.5265C26.5332 54.6186 25.0786 56.6162 21.1029 56.6162C17.2823 56.6162 15.7114 55.0453 15.7114 50.6817V42.3035Z" fill="white"/>
<path d="M30.7612 42.3035V56.3641H29.4618V42.3035H30.7612Z" fill="white"/>
<path d="M43.5662 49.3241C43.5662 44.1265 40.4826 43.4865 37.2826 43.4865H35.2074V55.181H37.2826C40.4826 55.181 43.5662 54.5216 43.5662 49.3241ZM33.908 42.3035H37.3214C41.8014 42.3035 44.9432 43.952 44.9432 49.3241C44.9432 54.735 41.8014 56.3641 37.3214 56.3641H33.908V42.3035Z" fill="white"/>
<path d="M47.1989 56.3641V42.3035H56.2171V43.5059H48.4983V48.4707H55.7517V49.6926H48.4983V55.1617H56.2171V56.3641H47.1989Z" fill="white"/>
<path d="M106.667 8.70528V6.11213C106.444 6.0495 106.246 6.01191 106.061 6.01191C105.708 6.01191 105.374 6.06202 105.046 6.1685C104.718 6.27499 104.415 6.41905 104.131 6.61322C103.846 6.80113 103.593 7.03289 103.37 7.30222C103.147 7.57156 102.974 7.85969 102.844 8.17287H102.807V6.28751H100.178V16.4471H102.943V11.8747C102.943 11.4174 102.986 10.9915 103.079 10.5969C103.172 10.2023 103.32 9.85779 103.537 9.56339C103.753 9.269 104.032 9.03725 104.384 8.86813C104.737 8.69901 105.164 8.61132 105.671 8.61132C105.838 8.61132 106.017 8.62385 106.197 8.64264C106.376 8.66143 106.531 8.68649 106.667 8.71154M99.3246 12.0501C99.374 11.2671 99.3122 10.5092 99.1266 9.78889C98.9472 9.06857 98.6503 8.42968 98.2421 7.86595C97.8339 7.30222 97.3081 6.8575 96.671 6.51927C96.0339 6.1873 95.2916 6.01818 94.4319 6.01818C93.6649 6.01818 92.9659 6.15598 92.3412 6.43158C91.7103 6.70718 91.1721 7.083 90.7144 7.55903C90.2629 8.04133 89.9103 8.60506 89.6629 9.25648C89.4155 9.91416 89.2918 10.6157 89.2918 11.3798C89.2918 12.144 89.4093 12.8894 89.6505 13.5408C89.8918 14.1922 90.232 14.7559 90.6711 15.232C91.1103 15.7018 91.6484 16.065 92.2855 16.3219C92.9226 16.5787 93.6339 16.7039 94.4257 16.7039C95.57 16.7039 96.5411 16.4409 97.3452 15.921C98.1493 15.3948 98.7493 14.5242 99.139 13.309H96.7081C96.6153 13.6222 96.3679 13.9229 95.9659 14.2047C95.5638 14.4866 95.0813 14.6244 94.5247 14.6244C93.7453 14.6244 93.1515 14.424 92.7309 14.0168C92.3164 13.6097 92.0876 12.9583 92.0505 12.0501H99.3122H99.3246ZM96.5597 10.2837H92.0628C92.0752 10.0833 92.1185 9.86405 92.1927 9.6135C92.2608 9.36296 92.3845 9.1312 92.5639 8.90571C92.7371 8.68649 92.9721 8.49858 93.2628 8.34825C93.5535 8.19792 93.9185 8.12276 94.3638 8.12276C95.038 8.12276 95.5391 8.3044 95.8731 8.67396C96.2071 9.03725 96.436 9.57592 96.5658 10.2837M88.2526 13.4468C88.432 12.8205 88.5248 12.1628 88.5248 11.4863C88.5248 10.766 88.432 10.077 88.2526 9.41307C88.0732 8.75539 87.7887 8.17287 87.4176 7.67804C87.0403 7.17695 86.564 6.78234 85.9949 6.48169C85.4259 6.18103 84.7393 6.03071 83.9476 6.03071C83.3228 6.03071 82.7538 6.15598 82.2342 6.40652C81.7146 6.65707 81.2878 7.05168 80.9476 7.60288H80.9105V6.3063H78.2817V19.9986H81.0466V15.1881H81.0837C81.4239 15.683 81.8507 16.065 82.3764 16.3156C82.9022 16.5724 83.4775 16.6977 84.1022 16.6977C84.8444 16.6977 85.4877 16.5536 86.0382 16.2655C86.5887 15.9774 87.0526 15.589 87.4176 15.1067C87.7887 14.6244 88.0609 14.0669 88.2464 13.4343M85.7537 11.3924C85.7537 11.7995 85.7166 12.2004 85.6362 12.5887C85.5558 12.9833 85.4259 13.3216 85.2341 13.6222C85.0424 13.9166 84.8011 14.1546 84.4919 14.3363C84.1888 14.5179 83.8053 14.6119 83.3537 14.6119C82.9022 14.6119 82.5373 14.5179 82.2218 14.3363C81.9125 14.1546 81.6589 13.9166 81.4734 13.6222C81.2816 13.3278 81.1455 12.9833 81.0651 12.5887C80.9785 12.1941 80.9352 11.7995 80.9352 11.3924C80.9352 10.9852 80.9724 10.5656 81.0528 10.1772C81.1332 9.78262 81.2631 9.43812 81.4486 9.13747C81.6404 8.83681 81.8816 8.59253 82.1909 8.40462C82.494 8.21671 82.8775 8.12276 83.329 8.12276C83.7805 8.12276 84.1455 8.21671 84.4486 8.40462C84.7517 8.59253 85.0053 8.84308 85.197 9.14999C85.3949 9.45691 85.531 9.80768 85.6176 10.2023C85.7042 10.5969 85.7413 10.9978 85.7413 11.3986M74.49 16.4471H77.2549V2.42285H74.49V16.4471ZM70.9829 16.4471H73.7849C73.655 16.2404 73.5622 15.921 73.5127 15.5013C73.4632 15.0817 73.4323 14.6432 73.4323 14.186V8.90571C73.4323 8.29188 73.2962 7.79705 73.0241 7.42123C72.7519 7.05168 72.3993 6.75729 71.9725 6.54432C71.5457 6.33762 71.0695 6.19356 70.5499 6.12466C70.0303 6.0495 69.5169 6.01818 69.0097 6.01818C68.453 6.01818 67.8963 6.07455 67.3458 6.1873C66.7953 6.30004 66.3005 6.48169 65.8551 6.74476C65.416 7.00783 65.051 7.35233 64.7665 7.78452C64.482 8.21671 64.3211 8.76165 64.2779 9.41307H67.0427C67.0922 8.86187 67.2778 8.46726 67.5871 8.2355C67.8963 7.99749 68.3293 7.87848 68.8736 7.87848C69.1211 7.87848 69.3499 7.89727 69.5664 7.92859C69.7767 7.9599 69.9685 8.0288 70.1293 8.12276C70.2901 8.22298 70.42 8.36078 70.519 8.53616C70.6179 8.71154 70.6674 8.94956 70.6674 9.25021C70.6798 9.53834 70.5932 9.75757 70.4138 9.90789C70.2344 10.0582 69.987 10.171 69.6716 10.2524C69.3623 10.3338 69.0035 10.3902 68.6015 10.4278C68.1994 10.4654 67.7912 10.5217 67.3768 10.5844C66.9623 10.647 66.5479 10.741 66.1397 10.8474C65.7314 10.9602 65.3665 11.1293 65.051 11.3485C64.7356 11.574 64.4758 11.8684 64.2717 12.2442C64.0675 12.62 63.9686 13.0898 63.9686 13.6661C63.9686 14.1922 64.0552 14.6432 64.2284 15.019C64.4016 15.4011 64.649 15.7143 64.9582 15.9648C65.2675 16.2154 65.6325 16.397 66.0469 16.516C66.4613 16.635 66.9128 16.6914 67.3891 16.6914C68.0139 16.6914 68.62 16.5975 69.22 16.4158C69.8138 16.2342 70.3396 15.9147 70.7787 15.4512C70.7911 15.6203 70.8159 15.7894 70.8468 15.9523C70.8777 16.1152 70.921 16.278 70.9767 16.4346M70.6674 12.5073C70.6674 12.6639 70.6489 12.8769 70.6179 13.1337C70.587 13.3967 70.5004 13.6535 70.352 13.9104C70.2097 14.1672 69.987 14.3864 69.6901 14.568C69.3932 14.7497 68.9664 14.8436 68.4221 14.8436C68.1994 14.8436 67.9891 14.8248 67.7788 14.7873C67.5747 14.7497 67.3891 14.6808 67.2345 14.5806C67.0799 14.4803 66.9561 14.3488 66.8634 14.1797C66.7706 14.0106 66.7273 13.7976 66.7273 13.5533C66.7273 13.309 66.7706 13.0773 66.8634 12.9082C66.9561 12.7391 67.0737 12.595 67.2221 12.4885C67.3706 12.3758 67.5499 12.2881 67.7479 12.2254C67.952 12.1565 68.1561 12.1064 68.3602 12.0688C68.5829 12.0313 68.7994 11.9999 69.0221 11.9686C69.2448 11.9436 69.4551 11.9123 69.653 11.8684C69.8509 11.8308 70.0427 11.7807 70.2159 11.7181C70.3953 11.6617 70.5375 11.5803 70.655 11.4738V12.5136L70.6674 12.5073ZM60.6223 16.4346H63.3871V6.29378H60.6223V16.4471V16.4346ZM60.6223 4.70908H63.3871V2.42285H60.6223V4.72161V4.70908ZM59.9604 16.4346L55.7358 10.0144L59.5336 6.28125H56.2615L52.7791 9.93295V2.42285H50.0142V16.4471H52.7791V12.952L53.8492 11.9123L56.6141 16.4471H59.9666L59.9604 16.4346ZM48.9132 14.8562C49.1792 14.4052 49.3091 13.8477 49.3091 13.1775C49.3091 12.7077 49.2163 12.3131 49.0369 11.9874C48.8575 11.668 48.6163 11.3986 48.3194 11.1857C48.0225 10.9727 47.6823 10.7973 47.2988 10.6658C46.9153 10.5343 46.5256 10.4215 46.1236 10.3338C45.7339 10.2399 45.3504 10.1584 44.9731 10.077C44.5958 10.0018 44.2618 9.9079 43.9711 9.81394C43.6803 9.71372 43.4453 9.58845 43.2597 9.43186C43.0803 9.27527 42.9876 9.07483 42.9876 8.82429C42.9876 8.61759 43.0371 8.44847 43.1422 8.3232C43.2474 8.19792 43.3711 8.10397 43.5195 8.04133C43.668 7.9787 43.835 7.93485 44.0144 7.91606C44.1937 7.89727 44.3669 7.88474 44.5216 7.88474C45.0164 7.88474 45.4432 7.9787 45.8081 8.17287C46.1731 8.36078 46.371 8.72407 46.4143 9.26274H49.0431C48.9936 8.63638 48.8328 8.1165 48.5668 7.7031C48.3009 7.2897 47.9668 6.96399 47.5648 6.71344C47.1627 6.4629 46.705 6.28751 46.1916 6.18103C45.6782 6.07455 45.1463 6.02444 44.602 6.02444C44.0576 6.02444 43.5257 6.07455 43.0061 6.1685C42.4865 6.26872 42.0165 6.43784 41.602 6.68212C41.1876 6.9264 40.8536 7.25211 40.6 7.67178C40.3464 8.09144 40.2227 8.63011 40.2227 9.28153C40.2227 9.72625 40.3155 10.1021 40.4948 10.409C40.6804 10.7159 40.9154 10.9727 41.2185 11.1731C41.5154 11.3798 41.8556 11.5427 42.2391 11.668C42.6226 11.7932 43.0123 11.8997 43.4144 11.9937C44.404 12.2066 45.171 12.4133 45.7215 12.62C46.272 12.8267 46.5504 13.1462 46.5504 13.5596C46.5504 13.8101 46.4947 14.0168 46.3772 14.1797C46.2597 14.3425 46.1174 14.4741 45.938 14.5743C45.7648 14.6745 45.5669 14.7434 45.3566 14.7873C45.1401 14.8311 44.936 14.8562 44.7442 14.8562C44.4721 14.8562 44.2123 14.8248 43.9587 14.7559C43.7051 14.6933 43.4824 14.5868 43.2845 14.4553C43.0927 14.3175 42.9319 14.1421 42.8082 13.9229C42.6845 13.7037 42.6226 13.4468 42.6226 13.1462H40C40.0247 13.8289 40.1794 14.3927 40.4577 14.8436C40.7361 15.2946 41.0948 15.6579 41.5278 15.9335C41.9608 16.2091 42.4618 16.4033 43.0185 16.5223C43.5752 16.6413 44.1504 16.6977 44.7319 16.6977C45.3133 16.6977 45.8638 16.6413 46.4143 16.5286C46.9648 16.4158 47.4535 16.2216 47.8864 15.9523C48.3132 15.6767 48.6596 15.3134 48.9256 14.8624" fill="white"/>
<path d="M65.8368 42.0503C62.7338 42.0503 60.6393 43.9509 60.6974 46.8406H63.2962C63.2962 44.7461 64.4986 44.0285 65.6817 44.0285C67.0005 44.0285 67.7568 44.7267 67.7568 45.9679C67.7568 48.1982 64.9641 50.5642 60.4453 54.1909V56.363H70.7823V54.1133H63.5677C67.8926 51.243 70.4526 48.4697 70.4526 45.8321C70.4526 43.3691 68.6489 42.0503 65.8368 42.0503Z" fill="white"/>
<path d="M76.8933 56.6151C80.617 56.6151 82.537 53.5703 82.537 49.3036C82.537 45.037 80.617 42.0503 76.8933 42.0503C73.1309 42.0503 71.2303 45.037 71.2303 49.3036C71.2303 53.5703 73.1309 56.6151 76.8933 56.6151ZM76.8933 54.5982C74.9733 54.5982 73.9649 52.717 73.9649 49.3036C73.9649 45.8903 74.9733 44.0673 76.8933 44.0673C78.8133 44.0673 79.8024 45.8903 79.8024 49.3036C79.8024 52.717 78.8133 54.5982 76.8933 54.5982Z" fill="white"/>
<path d="M88.3762 42.0503C85.2732 42.0503 83.1786 43.9509 83.2368 46.8406H85.8356C85.8356 44.7461 87.038 44.0285 88.2211 44.0285C89.5399 44.0285 90.2962 44.7267 90.2962 45.9679C90.2962 48.1982 87.5035 50.5642 82.9847 54.1909V56.363H93.3217V54.1133H86.1071C90.432 51.243 92.992 48.4697 92.992 45.8321C92.992 43.3691 91.1883 42.0503 88.3762 42.0503Z" fill="white"/>
<path d="M99.7133 45.6964V50.7194H95.6988L99.7133 45.6964ZM104.775 50.7194H102.37V42.3024H99.7521L92.7703 50.8939V52.9885H99.7133V56.363H102.37V52.9885H104.775V50.7194Z" fill="white"/>
</svg>
