<svg width="125" height="19" viewBox="0 0 125 19" fill="none" xmlns="http://www.w3.org/2000/svg">
<path d="M70.5714 7.43407V4.77833C70.3424 4.71418 70.1388 4.67569 69.9479 4.67569C69.5853 4.67569 69.2417 4.72701 68.9045 4.83607C68.5674 4.94512 68.2556 5.09266 67.9629 5.29152C67.6703 5.48396 67.4094 5.72131 67.1804 5.99715C66.9514 6.27299 66.7732 6.56807 66.6396 6.88881H66.6014V4.95795H63.8975V15.3628H66.7414V10.68C66.7414 10.2117 66.7859 9.77548 66.8814 9.37135C66.9768 8.96721 67.1295 8.6144 67.3522 8.3129C67.5749 8.0114 67.8611 7.77406 68.2238 7.60086C68.5864 7.42765 69.0254 7.33785 69.5471 7.33785C69.7189 7.33785 69.9034 7.35068 70.0879 7.36992C70.2724 7.38917 70.4315 7.41483 70.5714 7.44048M63.0195 10.8596C63.0704 10.0577 63.0068 9.28154 62.8159 8.54383C62.6314 7.80613 62.3261 7.15182 61.9062 6.57448C61.4863 5.99715 60.9455 5.5417 60.2902 5.1953C59.6349 4.85531 58.8714 4.68211 57.9871 4.68211C57.1982 4.68211 56.4792 4.82324 55.8367 5.10549C55.1877 5.38774 54.6342 5.77263 54.1634 6.26016C53.699 6.7541 53.3363 7.33143 53.0818 7.99857C52.8273 8.67213 52.7001 9.39059 52.7001 10.1732C52.7001 10.9558 52.821 11.7192 53.0691 12.3863C53.3172 13.0535 53.6672 13.6308 54.1189 14.1183C54.5706 14.5994 55.1241 14.9715 55.7794 15.2345C56.4347 15.4975 57.1663 15.6258 57.9807 15.6258C59.1577 15.6258 60.1566 15.3564 60.9836 14.8239C61.8107 14.2851 62.4279 13.3934 62.8287 12.149H60.3283C60.2329 12.4697 59.9784 12.7776 59.5649 13.0663C59.1513 13.355 58.6551 13.4961 58.0825 13.4961C57.2809 13.4961 56.6701 13.2908 56.2375 12.8738C55.8112 12.4569 55.5758 11.7897 55.5376 10.8596H63.0068H63.0195ZM60.1757 9.05061H55.5504C55.5631 8.84533 55.6076 8.62081 55.684 8.36422C55.7539 8.10763 55.8812 7.87028 56.0657 7.63934C56.2438 7.41483 56.4856 7.22238 56.7846 7.06842C57.0836 6.91447 57.459 6.83749 57.9171 6.83749C58.6106 6.83749 59.1259 7.02352 59.4695 7.402C59.813 7.77406 60.0484 8.32573 60.182 9.05061M51.6313 12.2901C51.8158 11.6486 51.9112 10.9751 51.9112 10.2823C51.9112 9.54455 51.8158 8.83892 51.6313 8.15895C51.4468 7.48539 51.1541 6.88881 50.7724 6.38204C50.3843 5.86885 49.8944 5.46472 49.3091 5.15681C48.7238 4.8489 48.0176 4.69494 47.2032 4.69494C46.5606 4.69494 45.9753 4.82324 45.4409 5.07983C44.9064 5.33642 44.4675 5.74056 44.1175 6.30506H44.0794V4.97719H41.3754V19H44.2193V14.0734H44.2575C44.6074 14.5802 45.0464 14.9715 45.5872 15.2281C46.128 15.4911 46.7197 15.6194 47.3622 15.6194C48.1257 15.6194 48.7874 15.4718 49.3536 15.1768C49.9198 14.8817 50.397 14.484 50.7724 13.99C51.1541 13.4961 51.434 12.9252 51.6249 12.2773M49.0609 10.186C49.0609 10.603 49.0228 11.0135 48.9401 11.4113C48.8574 11.8154 48.7237 12.1618 48.5265 12.4697C48.3293 12.7712 48.0812 13.015 47.7631 13.201C47.4513 13.387 47.0569 13.4832 46.5924 13.4832C46.128 13.4832 45.7526 13.387 45.4282 13.201C45.11 13.015 44.8492 12.7712 44.6583 12.4697C44.4611 12.1682 44.3211 11.8154 44.2384 11.4113C44.1494 11.0071 44.1048 10.603 44.1048 10.186C44.1048 9.76907 44.143 9.33927 44.2257 8.94155C44.3084 8.53742 44.442 8.1846 44.6329 7.87669C44.8301 7.56878 45.0782 7.3186 45.3963 7.12616C45.7081 6.93371 46.1025 6.83749 46.567 6.83749C47.0314 6.83749 47.4068 6.93371 47.7185 7.12616C48.0303 7.3186 48.2911 7.5752 48.4883 7.88952C48.6919 8.20385 48.8319 8.56308 48.921 8.96721C49.01 9.37135 49.0482 9.7819 49.0482 10.1924M37.4754 15.3628H40.3193V1H37.4754V15.3628ZM33.8681 15.3628H36.7502C36.6165 15.1511 36.5211 14.8239 36.4702 14.3942C36.4193 13.9644 36.3875 13.5153 36.3875 13.047V7.63934C36.3875 7.01069 36.2475 6.50392 35.9676 6.11903C35.6877 5.74056 35.325 5.43906 34.886 5.22095C34.447 5.00927 33.9572 4.86172 33.4227 4.79116C32.8883 4.71418 32.3603 4.68211 31.8386 4.68211C31.266 4.68211 30.6934 4.73984 30.1271 4.85531C29.5609 4.97078 29.0519 5.15681 28.5939 5.42623C28.1421 5.69565 27.7668 6.04847 27.4741 6.49109C27.1815 6.93371 27.016 7.4918 26.9715 8.15895H29.8154C29.8663 7.59444 30.0572 7.19031 30.3753 6.95296C30.6934 6.70919 31.1387 6.58731 31.6986 6.58731C31.9531 6.58731 32.1885 6.60656 32.4112 6.63863C32.6275 6.67071 32.8247 6.74127 32.9901 6.83749C33.1555 6.94013 33.2891 7.08125 33.3909 7.26087C33.4927 7.44049 33.5436 7.68425 33.5436 7.99216C33.5563 8.28724 33.4673 8.51176 33.2828 8.66572C33.0983 8.81967 32.8438 8.93514 32.5193 9.01853C32.2012 9.10192 31.8322 9.15966 31.4187 9.19815C31.0051 9.23664 30.5852 9.29437 30.1589 9.35852C29.7327 9.42267 29.3064 9.51889 28.8865 9.62794C28.4666 9.74341 28.0912 9.91661 27.7668 10.1411C27.4423 10.3721 27.1751 10.6736 26.9651 11.0584C26.7552 11.4433 26.6534 11.9244 26.6534 12.5146C26.6534 13.0535 26.7425 13.5153 26.9206 13.9002C27.0987 14.2915 27.3532 14.6123 27.6713 14.8689C27.9894 15.1254 28.3648 15.3115 28.7911 15.4334C29.2173 15.5552 29.6818 15.613 30.1717 15.613C30.8143 15.613 31.4377 15.5167 32.0549 15.3307C32.6656 15.1447 33.2064 14.8175 33.6581 14.3428C33.6709 14.516 33.6963 14.6892 33.7281 14.856C33.7599 15.0228 33.8045 15.1896 33.8617 15.35M33.5436 11.3279C33.5436 11.4882 33.5245 11.7063 33.4927 11.9694C33.4609 12.2388 33.3718 12.5018 33.2192 12.7648C33.0728 13.0278 32.8438 13.2523 32.5384 13.4383C32.233 13.6244 31.794 13.7206 31.2342 13.7206C31.0051 13.7206 30.7888 13.7014 30.5725 13.6629C30.3625 13.6244 30.1717 13.5538 30.0126 13.4512C29.8536 13.3485 29.7263 13.2138 29.6309 13.0406C29.5355 12.8674 29.4909 12.6493 29.4909 12.3991C29.4909 12.149 29.5355 11.9116 29.6309 11.7384C29.7263 11.5652 29.8472 11.4177 29.9999 11.3086C30.1526 11.1932 30.3371 11.1033 30.5407 11.0392C30.7506 10.9686 30.9606 10.9173 31.1705 10.8788C31.3996 10.8403 31.6222 10.8083 31.8513 10.7762C32.0803 10.7505 32.2966 10.7185 32.5002 10.6736C32.7038 10.6351 32.901 10.5837 33.0792 10.5196C33.2637 10.4619 33.41 10.3785 33.5309 10.2694V11.3343L33.5436 11.3279ZM23.2115 15.35H26.0554V4.96436H23.2115V15.3628V15.35ZM23.2115 3.34141H26.0554V1H23.2115V3.35424V3.34141ZM22.5307 15.35L18.1854 8.77477L22.0917 4.95153H18.7261L15.1442 8.69138V1H12.3003V15.3628H15.1442V11.7833L16.2449 10.7185L19.0888 15.3628H22.5371L22.5307 15.35ZM11.1679 13.7334C11.4415 13.2716 11.5751 12.7006 11.5751 12.0143C11.5751 11.5331 11.4796 11.129 11.2951 10.7954C11.1106 10.4683 10.8625 10.1924 10.5571 9.97434C10.2517 9.75624 9.90181 9.57662 9.50736 9.44191C9.1129 9.3072 8.71209 9.19173 8.29854 9.10192C7.89773 9.0057 7.50327 8.92231 7.11518 8.83892C6.72709 8.76194 6.38353 8.66572 6.08451 8.56949C5.78549 8.46686 5.54373 8.33856 5.35286 8.17819C5.16836 8.01782 5.07293 7.81254 5.07293 7.55595C5.07293 7.34426 5.12382 7.17106 5.23198 7.04277C5.34014 6.91447 5.46738 6.81825 5.62007 6.7541C5.77276 6.68995 5.94454 6.64505 6.12905 6.6258C6.31355 6.60656 6.49169 6.59373 6.65074 6.59373C7.15972 6.59373 7.59871 6.68995 7.97407 6.88881C8.34944 7.08125 8.55303 7.45331 8.59757 8.00499H11.3015C11.2506 7.36351 11.0852 6.83108 10.8116 6.4077C10.538 5.98432 10.1945 5.65075 9.78093 5.39416C9.36739 5.13756 8.89659 4.95795 8.36853 4.8489C7.84047 4.73984 7.29332 4.68852 6.73345 4.68852C6.17358 4.68852 5.62643 4.73984 5.09201 4.83607C4.55759 4.9387 4.07407 5.1119 3.6478 5.36208C3.22154 5.61226 2.87798 5.94583 2.61713 6.37562C2.35628 6.80542 2.22904 7.35709 2.22904 8.02423C2.22904 8.47969 2.32447 8.86458 2.50897 9.1789C2.69984 9.49323 2.9416 9.75624 3.25335 9.96151C3.55873 10.1732 3.90865 10.34 4.3031 10.4683C4.69756 10.5966 5.09838 10.7056 5.51192 10.8019C6.52986 11.02 7.31877 11.2316 7.885 11.4433C8.45124 11.655 8.73753 11.9822 8.73753 12.4056C8.73753 12.6622 8.68027 12.8738 8.55939 13.0406C8.43851 13.2074 8.29218 13.3421 8.10768 13.4448C7.92954 13.5474 7.72595 13.618 7.50964 13.6629C7.28696 13.7078 7.07701 13.7334 6.87978 13.7334C6.59985 13.7334 6.33264 13.7014 6.07179 13.6308C5.81094 13.5666 5.5819 13.4576 5.37831 13.3229C5.18108 13.1818 5.01567 13.0021 4.88842 12.7776C4.76118 12.5531 4.69756 12.2901 4.69756 11.9822H2C2.02545 12.6814 2.1845 13.2587 2.4708 13.7206C2.7571 14.1825 3.1261 14.5545 3.57146 14.8368C4.01681 15.119 4.53214 15.3179 5.10474 15.4398C5.67733 15.5617 6.26901 15.6194 6.86706 15.6194C7.4651 15.6194 8.03133 15.5617 8.59757 15.4462C9.1638 15.3307 9.66641 15.1319 10.1118 14.856C10.5508 14.5738 10.907 14.2017 11.1806 13.7398" fill="black"/>
<path d="M78.9406 0.841562C81.6406 0.841562 83.3206 2.20156 83.3206 4.58156C83.3206 7.52156 80.8006 10.4016 75.4606 14.4016H83.7606V15.6016H73.7406V14.3616C79.0806 10.3016 82.0006 7.42156 82.0006 4.72156C82.0006 2.86156 80.5806 1.94156 78.9406 1.94156C77.1206 1.94156 75.4606 2.80156 75.4006 5.58156H74.0806C74.2206 2.46156 76.0406 0.841562 78.9406 0.841562ZM90.3873 15.8616C86.5473 15.8616 84.8073 12.9816 84.8073 8.34156C84.8073 3.76156 86.5473 0.841562 90.3873 0.841562C94.1873 0.841562 95.9473 3.76156 95.9473 8.34156C95.9473 12.9816 94.1873 15.8616 90.3873 15.8616ZM90.3873 14.7616C92.9673 14.7616 94.6473 12.7216 94.6473 8.34156C94.6473 4.00156 92.9673 1.94156 90.3873 1.94156C87.7673 1.94156 86.1273 4.00156 86.1273 8.34156C86.1273 12.7216 87.7673 14.7616 90.3873 14.7616ZM102.028 0.841562C104.728 0.841562 106.408 2.20156 106.408 4.58156C106.408 7.52156 103.888 10.4016 98.5481 14.4016H106.848V15.6016H96.8281V14.3616C102.168 10.3016 105.088 7.42156 105.088 4.72156C105.088 2.86156 103.668 1.94156 102.028 1.94156C100.208 1.94156 98.5481 2.80156 98.4881 5.58156H97.1681C97.3081 2.46156 99.1281 0.841562 102.028 0.841562ZM113.839 2.82156L107.519 10.5816H113.839V2.82156ZM117.899 10.5816V11.8016H115.079V15.6016H113.839V11.8016H106.039V10.6816L113.859 1.10156H115.079V10.5816H117.899Z" fill="black"/>
</svg>
