<svg width="113" height="50" viewBox="0 0 113 50" fill="none" xmlns="http://www.w3.org/2000/svg">
<path d="M3.94343 13.6351V2.91999H0V1.91797H8.9697V2.91999H5.02626V13.6351H3.94343Z" fill="black"/>
<path d="M18.1768 1.91797H19.2596V13.6351H18.1768V8.07554H11.2758V13.6351H10.1929V1.91797H11.2758V7.05736H18.1768V1.91797Z" fill="black"/>
<path d="M21.8842 13.6351V1.91797H29.3994V2.91999H22.967V7.05736H29.0115V8.07554H22.967V12.6331H29.3994V13.6351H21.8842Z" fill="black"/>
<path d="M1.3899 30.3018V18.5846H5.38182C7.49899 18.5846 9.34142 19.1665 9.34142 21.5422C9.34142 22.7867 8.71111 23.724 7.82222 24.1281C9.22828 24.5321 9.82626 25.518 9.82626 26.924C9.82626 29.3483 8.03232 30.3018 5.75354 30.3018H1.3899ZM2.47273 24.6776V29.3159H5.81818C7.75758 29.3159 8.67879 28.4755 8.67879 26.9402C8.67879 25.3402 7.77374 24.6776 5.72121 24.6776H2.47273ZM2.47273 19.5705V23.7402H5.59192C7.19192 23.7402 8.2101 23.223 8.2101 21.6069C8.2101 20.1846 7.20808 19.5705 5.6404 19.5705H2.47273Z" fill="black"/>
<path d="M11.5934 18.5846H12.6763V25.7604C12.6763 28.2816 13.6136 29.4776 16.0864 29.4776C18.6237 29.4776 19.5288 28.1038 19.5288 25.5665V18.5846H20.6116V25.4372C20.6116 28.8473 19.3995 30.5119 16.0864 30.5119C12.9025 30.5119 11.5934 29.2028 11.5934 25.5665V18.5846Z" fill="black"/>
<path d="M21.4217 18.5846H22.6338L26.1571 24.7907L29.7934 18.5846H31.0379L26.6581 25.9058V30.3018H25.5753V25.8735L21.4217 18.5846Z" fill="black"/>
<path d="M32.1077 30.3018V18.5846H39.6229V19.5867H33.1905V23.724H39.235V24.7422H33.1905V29.2998H39.6229V30.3018H32.1077Z" fill="black"/>
<path d="M48.6077 30.3018L45.8441 25.0978C45.6986 25.1139 45.537 25.1301 45.3592 25.1301H42.4986V30.3018H41.4158V18.5846H44.8582C47.6542 18.5846 49.6421 19.0856 49.6421 21.8008C49.6421 23.7564 48.6077 24.6614 46.9754 24.9685L49.8198 30.3018H48.6077ZM45.0037 19.5705H42.4986V24.1442H45.0037C46.9431 24.1442 48.5107 23.9018 48.5107 21.8331C48.5107 19.7644 46.9431 19.5705 45.0037 19.5705Z" fill="black"/>
<path d="M51.2841 20.1038V18.5846H52.6902V20.2331L51.8821 22.3341H51.1386L51.8336 20.1038H51.2841Z" fill="black"/>
<path d="M54.2403 21.4614C54.2403 19.3119 56.4221 18.3745 58.313 18.3745C60.6403 18.3745 62.2403 19.4897 62.6766 21.5099H61.5453C61.1413 20.1523 60.01 19.4089 58.1999 19.4089C57.0362 19.4089 55.3554 19.8776 55.3554 21.4129C55.3554 22.5927 56.309 23.1745 57.6181 23.4816L59.008 23.7887C60.6888 24.1766 62.9514 24.8392 62.9514 27.0856C62.9514 29.3321 60.8989 30.5119 58.6201 30.5119C55.6948 30.5119 54.0787 28.8796 53.8201 26.7786H54.9514C55.3554 28.6695 56.6322 29.4776 58.5716 29.4776C59.8484 29.4776 61.8201 29.0089 61.8201 27.2634C61.8201 25.8412 60.4302 25.1624 58.7817 24.8069L57.311 24.4836C55.7756 24.1442 54.2403 23.3846 54.2403 21.4614Z" fill="black"/>
<path d="M5.9798 35.0412C8.50101 35.0412 10.3111 36.318 10.8283 38.7745H9.69697C9.21212 36.819 7.56364 36.0755 5.94748 36.0755C3.6202 36.0755 1.79394 37.8695 1.79394 41.1018C1.79394 44.221 3.45859 46.1442 5.86667 46.1442C7.59596 46.1442 9.77778 45.4654 9.77778 42.6372V42.2008H6.49697V41.1988H10.8121V46.9685H9.85859L9.84243 45.32C9.13131 46.4351 7.90303 47.1786 5.85051 47.1786C2.48889 47.1786 0.646465 44.6412 0.646465 41.1018C0.646465 37.5301 2.63434 35.0412 5.9798 35.0412Z" fill="black"/>
<path d="M13.0928 35.2513H14.1756V42.4271C14.1756 44.9483 15.113 46.1442 17.5857 46.1442C20.1231 46.1442 21.0282 44.7705 21.0282 42.2331V35.2513H22.111V42.1038C22.111 45.5139 20.8989 47.1786 17.5857 47.1786C14.4019 47.1786 13.0928 45.8695 13.0928 42.2331V35.2513Z" fill="black"/>
<path d="M25.6343 35.2513V46.9685H24.5515V35.2513H25.6343Z" fill="black"/>
<path d="M36.3052 41.1018C36.3052 36.7705 33.7355 36.2372 31.0688 36.2372H29.3395V45.9826H31.0688C33.7355 45.9826 36.3052 45.4331 36.3052 41.1018ZM28.2567 35.2513H31.1011C34.8345 35.2513 37.4527 36.625 37.4527 41.1018C37.4527 45.6109 34.8345 46.9685 31.1011 46.9685H28.2567V35.2513Z" fill="black"/>
<path d="M39.3325 46.9685V35.2513H46.8476V36.2533H40.4153V40.3907H46.4597V41.4089H40.4153V45.9665H46.8476V46.9685H39.3325Z" fill="black"/>
<path d="M88.8915 7.25489V5.09393C88.7059 5.04173 88.541 5.01042 88.3864 5.01042C88.0925 5.01042 87.8142 5.05217 87.541 5.14091C87.2678 5.22964 87.0152 5.3497 86.7781 5.51151C86.541 5.6681 86.3297 5.86123 86.1441 6.08567C85.9586 6.31012 85.8142 6.55023 85.706 6.81121H85.6751V5.24008H83.4844V13.7064H85.7885V9.89605C85.7885 9.51501 85.8246 9.16007 85.9019 8.83123C85.9792 8.50239 86.1029 8.21531 86.2833 7.96998C86.4637 7.72466 86.6957 7.53153 86.9895 7.3906C87.2833 7.24967 87.6389 7.17659 88.0616 7.17659C88.2008 7.17659 88.3503 7.18703 88.4998 7.20269C88.6492 7.21835 88.7781 7.23923 88.8915 7.26011M82.7731 10.0422C82.8143 9.38974 82.7628 8.75816 82.6081 8.15789C82.4586 7.55763 82.2112 7.02522 81.871 6.55545C81.5308 6.08567 81.0927 5.71508 80.5618 5.43321C80.0309 5.15657 79.4123 5.01564 78.6958 5.01564C78.0567 5.01564 77.4742 5.13047 76.9536 5.36014C76.4278 5.5898 75.9794 5.90298 75.598 6.29968C75.2217 6.7016 74.9279 7.17137 74.7217 7.71422C74.5155 8.26229 74.4124 8.84689 74.4124 9.4837C74.4124 10.1205 74.5103 10.7416 74.7114 11.2845C74.9124 11.8273 75.1959 12.2971 75.5619 12.6938C75.9278 13.0853 76.3763 13.388 76.9072 13.602C77.4381 13.816 78.0309 13.9204 78.6907 13.9204C79.6443 13.9204 80.4535 13.7012 81.1236 13.268C81.7937 12.8295 82.2937 12.104 82.6184 11.0914H80.5927C80.5154 11.3523 80.3092 11.6029 79.9742 11.8378C79.6391 12.0727 79.2371 12.1875 78.7732 12.1875C78.1237 12.1875 77.6288 12.0205 77.2783 11.6812C76.933 11.3419 76.7423 10.7991 76.7113 10.0422H82.7628H82.7731ZM80.469 8.57025H76.7216C76.732 8.40322 76.768 8.22053 76.8299 8.01174C76.8866 7.80295 76.9897 7.60983 77.1392 7.42192C77.2835 7.23923 77.4794 7.08264 77.7216 6.95736C77.9639 6.83209 78.268 6.76945 78.6391 6.76945C79.201 6.76945 79.6185 6.92083 79.8968 7.22879C80.1752 7.53153 80.3659 7.98042 80.4741 8.57025M73.5465 11.2062C73.6959 10.6842 73.7733 10.1362 73.7733 9.57243C73.7733 8.97217 73.6959 8.398 73.5465 7.84471C73.397 7.29664 73.1599 6.81121 72.8506 6.39886C72.5362 5.98128 72.1393 5.65244 71.665 5.40189C71.1908 5.15135 70.6187 5.02608 69.9589 5.02608C69.4383 5.02608 68.9641 5.13047 68.5311 5.33926C68.0981 5.54805 67.7424 5.87689 67.4589 6.33622H67.428V5.25574H65.2373V16.666H67.5414V12.6573H67.5723C67.8558 13.0696 68.2115 13.388 68.6496 13.5968C69.0878 13.8108 69.5672 13.9152 70.0878 13.9152C70.7063 13.9152 71.2424 13.7952 71.7011 13.5551C72.1599 13.315 72.5465 12.9913 72.8506 12.5894C73.1599 12.1875 73.3867 11.7229 73.5413 11.1958M71.464 9.49414C71.464 9.83342 71.4331 10.1675 71.3661 10.4911C71.2991 10.8199 71.1908 11.1018 71.031 11.3523C70.8712 11.5977 70.6702 11.796 70.4125 11.9474C70.1599 12.0988 69.8403 12.1771 69.4641 12.1771C69.0878 12.1771 68.7837 12.0988 68.5208 11.9474C68.2631 11.796 68.0517 11.5977 67.8971 11.3523C67.7373 11.107 67.6239 10.8199 67.5569 10.4911C67.4847 10.1623 67.4486 9.83342 67.4486 9.49414C67.4486 9.15485 67.4796 8.80514 67.5466 8.48151C67.6136 8.15267 67.7218 7.86559 67.8765 7.61505C68.0363 7.3645 68.2373 7.16093 68.495 7.00434C68.7476 6.84775 69.0672 6.76945 69.4434 6.76945C69.8197 6.76945 70.1238 6.84775 70.3764 7.00434C70.629 7.16093 70.8403 7.36972 71.0001 7.62548C71.1651 7.88125 71.2785 8.17355 71.3506 8.50239C71.4228 8.83123 71.4537 9.16529 71.4537 9.49935M62.0776 13.7064H64.3817V2.01953H62.0776V13.7064ZM59.155 13.7064H61.49C61.3818 13.5342 61.3044 13.268 61.2632 12.9183C61.222 12.5685 61.1962 12.2032 61.1962 11.8221V7.42192C61.1962 6.91039 61.0828 6.49803 60.856 6.18485C60.6292 5.87689 60.3354 5.63156 59.9797 5.45409C59.6241 5.28184 59.2272 5.16179 58.7942 5.10437C58.3612 5.04173 57.9334 5.01564 57.5107 5.01564C57.0468 5.01564 56.5829 5.06261 56.1241 5.15657C55.6654 5.25052 55.253 5.40189 54.8819 5.62112C54.5159 5.84035 54.2118 6.12743 53.9747 6.48759C53.7376 6.84775 53.6036 7.30186 53.5675 7.84471H55.8716C55.9128 7.38538 56.0674 7.05654 56.3252 6.86341C56.5829 6.66506 56.9437 6.56589 57.3973 6.56589C57.6035 6.56589 57.7942 6.58155 57.9746 6.60764C58.1499 6.63374 58.3097 6.69116 58.4437 6.76945C58.5777 6.85297 58.6859 6.9678 58.7684 7.11395C58.8509 7.26011 58.8921 7.45845 58.8921 7.709C58.9024 7.94911 58.8303 8.13179 58.6808 8.25707C58.5313 8.38234 58.3251 8.47629 58.0622 8.54415C57.8045 8.61201 57.5055 8.65898 57.1705 8.6903C56.8355 8.72162 56.4953 8.7686 56.1499 8.82079C55.8045 8.87299 55.4592 8.95129 55.119 9.04002C54.7788 9.13398 54.4747 9.27491 54.2118 9.4576C53.9489 9.64551 53.7324 9.89083 53.5623 10.204C53.3922 10.5172 53.3098 10.9087 53.3098 11.3889C53.3098 11.8273 53.3819 12.2032 53.5262 12.5163C53.6706 12.8347 53.8768 13.0957 54.1345 13.3045C54.3922 13.5133 54.6963 13.6647 55.0417 13.7638C55.387 13.863 55.7633 13.91 56.1602 13.91C56.6808 13.91 57.186 13.8317 57.686 13.6803C58.1808 13.529 58.6189 13.2628 58.9849 12.8765C58.9952 13.0174 59.0158 13.1584 59.0416 13.2941C59.0674 13.4298 59.1035 13.5655 59.1498 13.696M58.8921 10.4232C58.8921 10.5537 58.8766 10.7312 58.8509 10.9452C58.8251 11.1644 58.7529 11.3784 58.6292 11.5925C58.5107 11.8065 58.3251 11.9891 58.0777 12.1405C57.8303 12.2919 57.4746 12.3702 57.021 12.3702C56.8355 12.3702 56.6602 12.3545 56.4849 12.3232C56.3148 12.2919 56.1602 12.2345 56.0313 12.151C55.9025 12.0674 55.7994 11.9578 55.7221 11.8169C55.6448 11.676 55.6087 11.4985 55.6087 11.2949C55.6087 11.0914 55.6448 10.8982 55.7221 10.7573C55.7994 10.6164 55.8973 10.4963 56.021 10.4076C56.1447 10.3136 56.2942 10.2406 56.4592 10.1884C56.6293 10.1309 56.7994 10.0892 56.9695 10.0579C57.155 10.0265 57.3354 10.0004 57.521 9.97435C57.7066 9.95347 57.8818 9.92737 58.0468 9.89083C58.2117 9.85951 58.3715 9.81776 58.5158 9.76556C58.6653 9.71858 58.7839 9.65073 58.8818 9.56199V10.4285L58.8921 10.4232ZM50.5212 13.696H52.8252V5.2453H50.5212V13.7064V13.696ZM50.5212 3.92472H52.8252V2.01953H50.5212V3.93516V3.92472ZM49.9696 13.696L46.4491 8.3458L49.614 5.23486H46.8872L43.9852 8.27795V2.01953H41.6811V13.7064H43.9852V10.7938L44.8769 9.92737L47.181 13.7064H49.9748L49.9696 13.696ZM40.7636 12.3806C40.9853 12.0048 41.0935 11.5403 41.0935 10.9817C41.0935 10.5903 41.0162 10.2614 40.8667 9.99001C40.7172 9.7238 40.5162 9.49935 40.2688 9.32189C40.0214 9.14442 39.7379 8.99826 39.4183 8.88865C39.0987 8.77904 38.774 8.68508 38.4389 8.61201C38.1142 8.53371 37.7946 8.46586 37.4802 8.398C37.1658 8.33536 36.8874 8.25707 36.6451 8.17877C36.4029 8.09526 36.207 7.99086 36.0524 7.86037C35.9029 7.72988 35.8256 7.56285 35.8256 7.35406C35.8256 7.18181 35.8668 7.04088 35.9544 6.93648C36.0421 6.83209 36.1452 6.7538 36.2689 6.7016C36.3926 6.6494 36.5317 6.61286 36.6812 6.5972C36.8307 6.58155 36.975 6.57111 37.1039 6.57111C37.5163 6.57111 37.8719 6.6494 38.176 6.81121C38.4802 6.9678 38.6451 7.27055 38.6812 7.71944H40.8719C40.8306 7.19747 40.6966 6.76423 40.475 6.41973C40.2533 6.07523 39.975 5.80381 39.6399 5.59502C39.3049 5.38623 38.9235 5.24008 38.4956 5.15135C38.0678 5.06261 37.6245 5.02086 37.1709 5.02086C36.7173 5.02086 36.274 5.06261 35.841 5.14091C35.4081 5.22442 35.0163 5.36536 34.671 5.56892C34.3256 5.77249 34.0473 6.04392 33.8359 6.39364C33.6246 6.74336 33.5215 7.19225 33.5215 7.7351C33.5215 8.1057 33.5988 8.41888 33.7483 8.67464C33.9029 8.93041 34.0988 9.14442 34.3514 9.31145C34.5988 9.4837 34.8823 9.61941 35.2019 9.7238C35.5215 9.8282 35.8462 9.91693 36.1812 9.99523C37.006 10.1727 37.6451 10.3449 38.1039 10.5172C38.5626 10.6894 38.7946 10.9557 38.7946 11.3001C38.7946 11.5089 38.7482 11.6812 38.6503 11.8169C38.5523 11.9526 38.4338 12.0622 38.2843 12.1457C38.14 12.2293 37.975 12.2867 37.7998 12.3232C37.6194 12.3597 37.4493 12.3806 37.2895 12.3806C37.0627 12.3806 36.8462 12.3545 36.6348 12.2971C36.4235 12.2449 36.2379 12.1562 36.073 12.0466C35.9132 11.9317 35.7792 11.7856 35.6761 11.6029C35.573 11.4202 35.5215 11.2062 35.5215 10.9557H33.3359C33.3566 11.5246 33.4854 11.9944 33.7174 12.3702C33.9493 12.746 34.2483 13.0487 34.6091 13.2784C34.9699 13.5081 35.3874 13.6699 35.8513 13.7691C36.3153 13.8682 36.7946 13.9152 37.2792 13.9152C37.7637 13.9152 38.2224 13.8682 38.6812 13.7743C39.1399 13.6803 39.5472 13.5185 39.908 13.2941C40.2636 13.0644 40.5523 12.7617 40.7739 12.3858" fill="black"/>
<path d="M54.8679 35.043C52.2821 35.043 50.5366 36.6268 50.5851 39.0349H52.7508C52.7508 37.2894 53.7528 36.6915 54.7386 36.6915C55.8376 36.6915 56.4679 37.2733 56.4679 38.3076C56.4679 40.1662 54.1407 42.1379 50.375 45.1601V46.9702H58.9891V45.0955H52.977C56.5811 42.7036 58.7144 40.3925 58.7144 38.1945C58.7144 36.142 57.2114 35.043 54.8679 35.043Z" fill="black"/>
<path d="M64.0817 47.1803C67.1847 47.1803 68.7847 44.643 68.7847 41.0874C68.7847 37.5319 67.1847 35.043 64.0817 35.043C60.9463 35.043 59.3625 37.5319 59.3625 41.0874C59.3625 44.643 60.9463 47.1803 64.0817 47.1803ZM64.0817 45.4995C62.4817 45.4995 61.6413 43.9319 61.6413 41.0874C61.6413 38.243 62.4817 36.7238 64.0817 36.7238C65.6817 36.7238 66.5059 38.243 66.5059 41.0874C66.5059 43.9319 65.6817 45.4995 64.0817 45.4995Z" fill="black"/>
<path d="M73.6508 35.043C71.0649 35.043 69.3194 36.6268 69.3679 39.0349H71.5336C71.5336 37.2894 72.5356 36.6915 73.5215 36.6915C74.6205 36.6915 75.2508 37.2733 75.2508 38.3076C75.2508 40.1662 72.9235 42.1379 69.1578 45.1601V46.9702H77.772V45.0955H71.7598C75.3639 42.7036 77.4972 40.3925 77.4972 38.1945C77.4972 36.142 75.9942 35.043 73.6508 35.043Z" fill="black"/>
<path d="M83.0984 38.0814V42.2672H79.7529L83.0984 38.0814ZM87.3165 42.2672H85.3125V35.2531H83.1307L77.3125 42.4127V44.1581H83.0984V46.9702H85.3125V44.1581H87.3165V42.2672Z" fill="black"/>
</svg>
