<svg width="210" height="51" viewBox="0 0 210 51" fill="none" xmlns="http://www.w3.org/2000/svg">
<path d="M3.94343 14.1366V3.42145H0V2.41943H8.9697V3.42145H5.02626V14.1366H3.94343Z" fill="white"/>
<path d="M18.1768 2.41943H19.2596V14.1366H18.1768V8.57701H11.2758V14.1366H10.1929V2.41943H11.2758V7.55883H18.1768V2.41943Z" fill="white"/>
<path d="M21.8842 14.1366V2.41943H29.3994V3.42145H22.967V7.55883H29.0115V8.57701H22.967V13.1346H29.3994V14.1366H21.8842Z" fill="white"/>
<path d="M1.3899 30.8033V19.0861H5.38182C7.49899 19.0861 9.34142 19.6679 9.34142 22.0437C9.34142 23.2881 8.71111 24.2255 7.82222 24.6295C9.22828 25.0336 9.82626 26.0194 9.82626 27.4255C9.82626 29.8497 8.03232 30.8033 5.75354 30.8033H1.3899ZM2.47273 25.179V29.8174H5.81818C7.75758 29.8174 8.67879 28.977 8.67879 27.4417C8.67879 25.8417 7.77374 25.179 5.72121 25.179H2.47273ZM2.47273 20.072V24.2417H5.59192C7.19192 24.2417 8.2101 23.7245 8.2101 22.1083C8.2101 20.6861 7.20808 20.072 5.6404 20.072H2.47273Z" fill="white"/>
<path d="M11.5934 19.0861H12.6763V26.2619C12.6763 28.7831 13.6136 29.979 16.0864 29.979C18.6237 29.979 19.5288 28.6053 19.5288 26.0679V19.0861H20.6116V25.9386C20.6116 29.3487 19.3995 31.0134 16.0864 31.0134C12.9025 31.0134 11.5934 29.7043 11.5934 26.0679V19.0861Z" fill="white"/>
<path d="M21.4217 19.0861H22.6338L26.1571 25.2922L29.7934 19.0861H31.0379L26.6581 26.4073V30.8033H25.5753V26.375L21.4217 19.0861Z" fill="white"/>
<path d="M32.1077 30.8033V19.0861H39.6229V20.0881H33.1905V24.2255H39.235V25.2437H33.1905V29.8013H39.6229V30.8033H32.1077Z" fill="white"/>
<path d="M48.6077 30.8033L45.8441 25.5992C45.6986 25.6154 45.537 25.6316 45.3592 25.6316H42.4986V30.8033H41.4158V19.0861H44.8582C47.6542 19.0861 49.6421 19.5871 49.6421 22.3023C49.6421 24.2578 48.6077 25.1629 46.9754 25.4699L49.8198 30.8033H48.6077ZM45.0037 20.072H42.4986V24.6457H45.0037C46.9431 24.6457 48.5107 24.4033 48.5107 22.3346C48.5107 20.2659 46.9431 20.072 45.0037 20.072Z" fill="white"/>
<path d="M51.2841 20.6053V19.0861H52.6902V20.7346L51.8821 22.8356H51.1386L51.8336 20.6053H51.2841Z" fill="white"/>
<path d="M54.2403 21.9629C54.2403 19.8134 56.4221 18.876 58.313 18.876C60.6403 18.876 62.2403 19.9911 62.6766 22.0114H61.5453C61.1413 20.6538 60.01 19.9103 58.1999 19.9103C57.0362 19.9103 55.3554 20.379 55.3554 21.9144C55.3554 23.0942 56.309 23.676 57.6181 23.9831L59.008 24.2901C60.6888 24.678 62.9514 25.3406 62.9514 27.5871C62.9514 29.8336 60.8989 31.0134 58.6201 31.0134C55.6948 31.0134 54.0787 29.381 53.8201 27.28H54.9514C55.3554 29.1709 56.6322 29.979 58.5716 29.979C59.8484 29.979 61.8201 29.5103 61.8201 27.7649C61.8201 26.3427 60.4302 25.6639 58.7817 25.3083L57.311 24.9851C55.7756 24.6457 54.2403 23.8861 54.2403 21.9629Z" fill="white"/>
<path d="M5.9798 35.5427C8.50101 35.5427 10.3111 36.8194 10.8283 39.276H9.69697C9.21212 37.3204 7.56364 36.577 5.94748 36.577C3.6202 36.577 1.79394 38.3709 1.79394 41.6033C1.79394 44.7225 3.45859 46.6457 5.86667 46.6457C7.59596 46.6457 9.77778 45.9669 9.77778 43.1386V42.7023H6.49697V41.7002H10.8121V47.4699H9.85859L9.84243 45.8215C9.13131 46.9366 7.90303 47.68 5.85051 47.68C2.48889 47.68 0.646465 45.1427 0.646465 41.6033C0.646465 38.0316 2.63434 35.5427 5.9798 35.5427Z" fill="white"/>
<path d="M13.0928 35.7528H14.1756V42.9285C14.1756 45.4497 15.113 46.6457 17.5857 46.6457C20.1231 46.6457 21.0282 45.272 21.0282 42.7346V35.7528H22.111V42.6053C22.111 46.0154 20.8989 47.68 17.5857 47.68C14.4019 47.68 13.0928 46.3709 13.0928 42.7346V35.7528Z" fill="white"/>
<path d="M25.6343 35.7528V47.4699H24.5515V35.7528H25.6343Z" fill="white"/>
<path d="M36.3052 41.6033C36.3052 37.272 33.7355 36.7386 31.0688 36.7386H29.3395V46.4841H31.0688C33.7355 46.4841 36.3052 45.9346 36.3052 41.6033ZM28.2567 35.7528H31.1011C34.8345 35.7528 37.4527 37.1265 37.4527 41.6033C37.4527 46.1124 34.8345 47.4699 31.1011 47.4699H28.2567V35.7528Z" fill="white"/>
<path d="M39.3325 47.4699V35.7528H46.8476V36.7548H40.4153V40.8922H46.4597V41.9103H40.4153V46.4679H46.8476V47.4699H39.3325Z" fill="white"/>
<path d="M88.8895 7.75537V5.59442C88.704 5.54222 88.539 5.51091 88.3844 5.51091C88.0906 5.51091 87.8122 5.55266 87.5391 5.6414C87.2659 5.73013 87.0133 5.85019 86.7762 6.012C86.5391 6.16859 86.3277 6.36172 86.1422 6.58616C85.9566 6.81061 85.8123 7.05072 85.704 7.3117H85.6731V5.74057H83.4824V14.2069H85.7865V10.3965C85.7865 10.0155 85.8226 9.66056 85.8999 9.33172C85.9772 9.00288 86.1009 8.7158 86.2814 8.47047C86.4618 8.22515 86.6937 8.03202 86.9875 7.89109C87.2813 7.75015 87.637 7.67708 88.0597 7.67708C88.1988 7.67708 88.3483 7.68752 88.4978 7.70318C88.6473 7.71884 88.7761 7.73972 88.8895 7.76059M82.7711 10.5427C82.8124 9.89023 82.7608 9.25865 82.6062 8.65838C82.4567 8.05812 82.2093 7.52571 81.8691 7.05593C81.5289 6.58616 81.0907 6.21556 80.5598 5.9337C80.0289 5.65706 79.4104 5.51612 78.6939 5.51612C78.0547 5.51612 77.4723 5.63096 76.9516 5.86062C76.4259 6.09029 75.9774 6.40347 75.596 6.80017C75.2197 7.20209 74.9259 7.67186 74.7197 8.21471C74.5136 8.76278 74.4105 9.34738 74.4105 9.98418C74.4105 10.621 74.5084 11.2421 74.7094 11.785C74.9104 12.3278 75.194 12.7976 75.5599 13.1943C75.9259 13.5858 76.3743 13.8885 76.9053 14.1025C77.4362 14.3165 78.0289 14.4209 78.6887 14.4209C79.6423 14.4209 80.4516 14.2017 81.1217 13.7685C81.7918 13.33 82.2917 12.6045 82.6165 11.5919H80.5907C80.5134 11.8528 80.3072 12.1034 79.9722 12.3383C79.6372 12.5732 79.2351 12.688 78.7712 12.688C78.1217 12.688 77.6269 12.521 77.2764 12.1817C76.931 11.8424 76.7403 11.2995 76.7094 10.5427H82.7608H82.7711ZM80.467 9.07074H76.7197C76.73 8.90371 76.7661 8.72102 76.8279 8.51223C76.8846 8.30344 76.9877 8.11031 77.1372 7.9224C77.2815 7.73972 77.4774 7.58312 77.7197 7.45785C77.9619 7.33258 78.2661 7.26994 78.6372 7.26994C79.199 7.26994 79.6165 7.42131 79.8949 7.72928C80.1732 8.03202 80.3639 8.48091 80.4722 9.07074M73.5445 11.7067C73.694 11.1847 73.7713 10.6366 73.7713 10.0729C73.7713 9.47265 73.694 8.89849 73.5445 8.3452C73.395 7.79713 73.1579 7.3117 72.8486 6.89934C72.5342 6.48177 72.1373 6.15293 71.6631 5.90238C71.1889 5.65184 70.6167 5.52656 69.9569 5.52656C69.4363 5.52656 68.9621 5.63096 68.5291 5.83975C68.0962 6.04853 67.7405 6.37737 67.457 6.83671H67.4261V5.75623H65.2354V17.1665H67.5395V13.1578H67.5704C67.8539 13.5701 68.2096 13.8885 68.6477 14.0973C69.0858 14.3113 69.5652 14.4157 70.0858 14.4157C70.7044 14.4157 71.2404 14.2957 71.6992 14.0555C72.1579 13.8154 72.5445 13.4918 72.8486 13.0899C73.1579 12.688 73.3847 12.2234 73.5393 11.6962M71.4621 9.99462C71.4621 10.3339 71.4311 10.668 71.3641 10.9916C71.2971 11.3204 71.1889 11.6023 71.0291 11.8528C70.8693 12.0982 70.6683 12.2965 70.4105 12.4479C70.158 12.5993 69.8384 12.6775 69.4621 12.6775C69.0858 12.6775 68.7817 12.5993 68.5188 12.4479C68.2611 12.2965 68.0498 12.0982 67.8951 11.8528C67.7353 11.6075 67.6219 11.3204 67.5549 10.9916C67.4828 10.6627 67.4467 10.3339 67.4467 9.99462C67.4467 9.65534 67.4776 9.30562 67.5446 8.982C67.6116 8.65316 67.7199 8.36608 67.8745 8.11553C68.0343 7.86499 68.2353 7.66142 68.4931 7.50483C68.7456 7.34824 69.0652 7.26994 69.4415 7.26994C69.8178 7.26994 70.1219 7.34824 70.3745 7.50483C70.627 7.66142 70.8384 7.87021 70.9982 8.12597C71.1631 8.38174 71.2765 8.67404 71.3487 9.00288C71.4208 9.33172 71.4518 9.66578 71.4518 9.99984M62.0757 14.2069H64.3797V2.52002H62.0757V14.2069ZM59.153 14.2069H61.488C61.3798 14.0347 61.3025 13.7685 61.2612 13.4187C61.22 13.069 61.1942 12.7036 61.1942 12.3226V7.9224C61.1942 7.41087 61.0808 6.99852 60.854 6.68534C60.6272 6.37737 60.3334 6.13205 59.9778 5.95458C59.6221 5.78233 59.2252 5.66228 58.7922 5.60486C58.3592 5.54222 57.9314 5.51612 57.5087 5.51612C57.0448 5.51612 56.5809 5.5631 56.1222 5.65706C55.6634 5.75101 55.2511 5.90238 54.8799 6.12161C54.514 6.34084 54.2098 6.62792 53.9727 6.98808C53.7356 7.34824 53.6016 7.80235 53.5655 8.3452H55.8696C55.9108 7.88587 56.0655 7.55703 56.3232 7.3639C56.5809 7.16555 56.9417 7.06637 57.3953 7.06637C57.6015 7.06637 57.7922 7.08203 57.9727 7.10813C58.1479 7.13423 58.3077 7.19165 58.4417 7.26994C58.5757 7.35346 58.684 7.46829 58.7665 7.61444C58.8489 7.76059 58.8902 7.95894 58.8902 8.20949C58.9005 8.44959 58.8283 8.63228 58.6788 8.75756C58.5293 8.88283 58.3232 8.97678 58.0603 9.04464C57.8026 9.11249 57.5036 9.15947 57.1685 9.19079C56.8335 9.22211 56.4933 9.26909 56.1479 9.32128C55.8026 9.37348 55.4572 9.45178 55.117 9.54051C54.7768 9.63446 54.4727 9.7754 54.2098 9.95809C53.947 10.146 53.7305 10.3913 53.5604 10.7045C53.3903 11.0177 53.3078 11.4092 53.3078 11.8894C53.3078 12.3278 53.38 12.7036 53.5243 13.0168C53.6686 13.3352 53.8748 13.5962 54.1325 13.805C54.3903 14.0138 54.6944 14.1652 55.0397 14.2643C55.3851 14.3635 55.7614 14.4105 56.1583 14.4105C56.6789 14.4105 57.184 14.3322 57.684 14.1808C58.1788 14.0294 58.617 13.7632 58.9829 13.377C58.9932 13.5179 59.0139 13.6588 59.0396 13.7946C59.0654 13.9303 59.1015 14.066 59.1479 14.1965M58.8902 10.9237C58.8902 11.0542 58.8747 11.2317 58.8489 11.4457C58.8232 11.6649 58.751 11.8789 58.6273 12.0929C58.5087 12.3069 58.3232 12.4896 58.0757 12.641C57.8283 12.7924 57.4727 12.8707 57.0191 12.8707C56.8335 12.8707 56.6582 12.855 56.483 12.8237C56.3129 12.7924 56.1583 12.735 56.0294 12.6514C55.9005 12.5679 55.7974 12.4583 55.7201 12.3174C55.6428 12.1765 55.6067 11.999 55.6067 11.7954C55.6067 11.5919 55.6428 11.3987 55.7201 11.2578C55.7974 11.1169 55.8954 10.9968 56.0191 10.9081C56.1428 10.8141 56.2923 10.741 56.4572 10.6888C56.6273 10.6314 56.7974 10.5897 56.9675 10.5584C57.1531 10.527 57.3335 10.5009 57.5191 10.4748C57.7046 10.454 57.8799 10.4279 58.0448 10.3913C58.2098 10.36 58.3696 10.3182 58.5139 10.266C58.6634 10.2191 58.7819 10.1512 58.8799 10.0625V10.9289L58.8902 10.9237ZM50.5192 14.1965H52.8233V5.74579H50.5192V14.2069V14.1965ZM50.5192 4.42521H52.8233V2.52002H50.5192V4.43565V4.42521ZM49.9677 14.1965L46.4471 8.84629L49.612 5.73535H46.8853L43.9833 8.77843V2.52002H41.6792V14.2069H43.9833V11.2943L44.875 10.4279L47.1791 14.2069H49.9728L49.9677 14.1965ZM40.7617 12.8811C40.9833 12.5053 41.0916 12.0407 41.0916 11.4822C41.0916 11.0908 41.0142 10.7619 40.8648 10.4905C40.7153 10.2243 40.5142 9.99984 40.2668 9.82237C40.0194 9.6449 39.7359 9.49875 39.4163 9.38914C39.0968 9.27953 38.772 9.18557 38.437 9.11249C38.1122 9.0342 37.7927 8.96634 37.4782 8.89849C37.1638 8.83585 36.8855 8.75756 36.6432 8.67926C36.4009 8.59575 36.2051 8.49135 36.0504 8.36086C35.9009 8.23037 35.8236 8.06334 35.8236 7.85455C35.8236 7.6823 35.8649 7.54137 35.9525 7.43697C36.0401 7.33258 36.1432 7.25428 36.2669 7.20209C36.3906 7.14989 36.5298 7.11335 36.6793 7.09769C36.8288 7.08203 36.9731 7.07159 37.1019 7.07159C37.5143 7.07159 37.87 7.14989 38.1741 7.3117C38.4782 7.46829 38.6432 7.77103 38.6792 8.21993H40.8699C40.8287 7.69796 40.6947 7.26472 40.473 6.92022C40.2514 6.57572 39.973 6.3043 39.638 6.09551C39.3029 5.88672 38.9215 5.74057 38.4937 5.65184C38.0658 5.5631 37.6226 5.52134 37.169 5.52134C36.7154 5.52134 36.2721 5.5631 35.8391 5.6414C35.4061 5.72491 35.0144 5.86584 34.669 6.06941C34.3237 6.27298 34.0453 6.5444 33.834 6.89412C33.6226 7.24384 33.5195 7.69274 33.5195 8.23559C33.5195 8.60618 33.5969 8.91937 33.7463 9.17513C33.901 9.4309 34.0969 9.6449 34.3494 9.81193C34.5968 9.98418 34.8803 10.1199 35.1999 10.2243C35.5195 10.3287 35.8442 10.4174 36.1793 10.4957C37.004 10.6732 37.6432 10.8454 38.1019 11.0177C38.5607 11.1899 38.7926 11.4561 38.7926 11.8006C38.7926 12.0094 38.7462 12.1817 38.6483 12.3174C38.5504 12.4531 38.4318 12.5627 38.2823 12.6462C38.138 12.7297 37.9731 12.7872 37.7978 12.8237C37.6174 12.8602 37.4473 12.8811 37.2875 12.8811C37.0607 12.8811 36.8442 12.855 36.6329 12.7976C36.4216 12.7454 36.236 12.6567 36.071 12.5471C35.9113 12.4322 35.7772 12.2861 35.6741 12.1034C35.5711 11.9207 35.5195 11.7067 35.5195 11.4561H33.334C33.3546 12.0251 33.4835 12.4949 33.7154 12.8707C33.9474 13.2465 34.2463 13.5492 34.6072 13.7789C34.968 14.0086 35.3855 14.1704 35.8494 14.2696C36.3133 14.3687 36.7927 14.4157 37.2772 14.4157C37.7617 14.4157 38.2205 14.3687 38.6792 14.2748C39.138 14.1808 39.5452 14.019 39.906 13.7946C40.2617 13.5649 40.5503 13.2622 40.772 12.8863" fill="white"/>
<path d="M54.864 35.543C52.2782 35.543 50.5327 37.1268 50.5812 39.5349H52.7469C52.7469 37.7894 53.7489 37.1915 54.7347 37.1915C55.8337 37.1915 56.464 37.7733 56.464 38.8076C56.464 40.6662 54.1368 42.6379 50.3711 45.6601V47.4702H58.9852V45.5955H52.9731C56.5772 43.2036 58.7105 40.8925 58.7105 38.6945C58.7105 36.642 57.2075 35.543 54.864 35.543Z" fill="white"/>
<path d="M64.0778 47.6803C67.1808 47.6803 68.7808 45.143 68.7808 41.5874C68.7808 38.0319 67.1808 35.543 64.0778 35.543C60.9424 35.543 59.3586 38.0319 59.3586 41.5874C59.3586 45.143 60.9424 47.6803 64.0778 47.6803ZM64.0778 45.9995C62.4778 45.9995 61.6374 44.4319 61.6374 41.5874C61.6374 38.743 62.4778 37.2238 64.0778 37.2238C65.6778 37.2238 66.502 38.743 66.502 41.5874C66.502 44.4319 65.6778 45.9995 64.0778 45.9995Z" fill="white"/>
<path d="M73.6469 35.543C71.061 35.543 69.3155 37.1268 69.364 39.5349H71.5297C71.5297 37.7894 72.5317 37.1915 73.5176 37.1915C74.6165 37.1915 75.2469 37.7733 75.2469 38.8076C75.2469 40.6662 72.9196 42.6379 69.1539 45.6601V47.4702H77.7681V45.5955H71.7559C75.36 43.2036 77.4933 40.8925 77.4933 38.6945C77.4933 36.642 75.9903 35.543 73.6469 35.543Z" fill="white"/>
<path d="M83.0945 38.5814V42.7672H79.749L83.0945 38.5814ZM87.3126 42.7672H85.3086V35.7531H83.1268L77.3086 42.9127V44.6581H83.0945V47.4702H85.3086V44.6581H87.3126V42.7672Z" fill="white"/>
</svg>
