<svg width="61" height="60" viewBox="0 0 61 60" fill="none" xmlns="http://www.w3.org/2000/svg">
<g clip-path="url(#clip0_4672_45438)">
<path d="M48.95 56.3157C48.95 55.8412 49.018 55.498 49.1573 55.2464C49.2701 54.975 49.4741 54.863 49.7301 54.863C49.954 54.863 50.1375 54.975 50.2735 55.2266C50.3896 55.4539 50.4537 55.8412 50.4537 56.3157H48.95ZM52.0056 58.2516C51.7977 58.3636 51.618 58.4552 51.4339 58.5231C51.2775 58.5953 51.1171 58.6588 50.9336 58.6831C50.7733 58.7068 50.6135 58.7305 50.4537 58.7305C50.022 58.7305 49.6576 58.5953 49.4055 58.3195C49.1573 58.0685 49.018 57.6773 48.95 57.1587H52.1653C52.1653 56.5915 52.1178 56.0883 51.9818 55.6575C51.8696 55.2464 51.7137 54.8834 51.482 54.6114C51.2531 54.34 50.9773 54.1325 50.6815 53.9968C50.3896 53.8611 50.0695 53.7932 49.7301 53.7932C49.3381 53.7932 48.9942 53.8809 48.6775 54.0409C48.3579 54.2004 48.066 54.4277 47.8338 54.703C47.6061 54.9987 47.422 55.338 47.286 55.7253C47.15 56.1126 47.082 56.5237 47.082 56.9987C47.082 57.2503 47.1019 57.5018 47.15 57.7727C47.2224 58.0243 47.286 58.2958 47.422 58.5473C47.5419 58.8182 47.6978 59.0499 47.9057 59.2739C48.1296 59.4814 48.3817 59.6414 48.6974 59.7766C49.018 59.8886 49.3862 59.9603 49.8379 59.9603C50.2298 59.9603 50.5892 59.9123 50.9574 59.8207C51.2979 59.733 51.6656 59.5735 52.0056 59.3655V58.2516ZM42.4984 59.8444H44.346V58.9341C44.346 58.6152 44.3697 58.2759 44.414 57.9565C44.4383 57.6376 44.5057 57.3181 44.5743 57.0224C44.6423 56.751 44.7379 56.4757 44.8463 56.2478C44.958 56.0448 45.0984 55.861 45.2581 55.7253C45.3986 55.6133 45.5744 55.546 45.7579 55.546C45.8983 55.546 46.01 55.5659 46.146 55.6133C46.2577 55.6575 46.402 55.7253 46.5341 55.8412L46.946 54.2004C46.7619 54.0889 46.5778 53.9968 46.402 53.9289C46.2179 53.8809 46.0338 53.8611 45.8701 53.8611C45.5058 53.8374 45.2145 54.0409 44.9386 54.404C44.6622 54.7913 44.4383 55.3623 44.2343 56.1562H44.2144V53.9052H42.4984V59.8444ZM39.3505 56.9104C39.3505 57.5018 39.2825 57.9565 39.1465 58.2279C38.9867 58.5231 38.7385 58.6588 38.4145 58.6588C38.0989 58.6588 37.8706 58.5231 37.7147 58.2279C37.5549 57.9565 37.4587 57.5018 37.4587 56.9104C37.4587 56.3399 37.5549 55.909 37.7147 55.5896C37.8706 55.2944 38.0989 55.1587 38.4145 55.1587C38.7385 55.1587 38.9867 55.2944 39.1465 55.5896C39.2825 55.909 39.3505 56.3399 39.3505 56.9104ZM41.3147 56.9104C41.3147 56.4315 41.2423 56.0006 41.0864 55.6133C40.9266 55.2266 40.7227 54.9071 40.4468 54.6351C40.1742 54.3598 39.8541 54.1562 39.5103 54.0167C39.1708 53.8809 38.8026 53.7932 38.4145 53.7932C38.1188 53.7932 37.8468 53.8374 37.5748 53.9289C37.2785 54.0167 37.0269 54.1562 36.7748 54.3162C36.5233 54.4955 36.3187 54.703 36.1391 54.9513C35.955 55.2023 35.7952 55.498 35.7067 55.8169C35.5906 56.1363 35.5508 56.4994 35.5508 56.9104C35.5508 57.338 35.6111 57.7727 35.7504 58.1402C35.8908 58.5231 36.091 58.8381 36.3713 59.1178C36.6151 59.3898 36.9108 59.6171 37.2547 59.7766C37.6185 59.9123 38.0071 60 38.4145 60C38.8507 60 39.2383 59.9123 39.5783 59.7766C39.9426 59.6171 40.2428 59.413 40.5148 59.1377C40.7669 58.8381 40.9709 58.5231 41.1063 58.1402C41.2423 57.7727 41.3147 57.3661 41.3147 56.9104ZM34.6989 58.0922C34.5192 58.208 34.3871 58.2958 34.2472 58.3636C34.1074 58.4353 33.9951 58.4795 33.8835 58.4993C33.7873 58.5231 33.6751 58.5473 33.5833 58.5473C33.4235 58.5473 33.287 58.4993 33.1952 58.4116C33.1029 58.3393 33.015 58.2279 32.9669 58.0922C32.947 57.9565 32.9232 57.797 32.9232 57.5934V55.0908H34.611V53.9052H32.9232V52.0851H32.5793L30.2154 54.863V55.0908H31.059V57.9565C31.075 58.3195 31.1231 58.6389 31.2392 58.9104C31.3509 59.1619 31.5112 59.3655 31.6915 59.5255C31.8993 59.685 32.1033 59.8008 32.3311 59.8687C32.5633 59.9366 32.8071 59.9603 33.0432 59.9603C33.1952 59.9603 33.3832 59.9603 33.5429 59.9123C33.6994 59.8886 33.8835 59.8207 34.0676 59.7528C34.2671 59.685 34.4711 59.5934 34.6989 59.4577V58.0922ZM28.3197 50.9916C28.1356 50.9916 27.9521 51.0396 27.7917 51.1312C27.6557 51.2189 27.5197 51.3546 27.4274 51.4942C27.3356 51.6537 27.2914 51.8335 27.2914 52.0173C27.2914 52.1966 27.3356 52.3803 27.4274 52.5397C27.5197 52.676 27.6557 52.8117 27.7917 52.9033C27.9521 52.9954 28.1356 53.039 28.3197 53.039C28.4994 53.039 28.6835 52.9954 28.8432 52.9033C28.9792 52.8117 29.1158 52.676 29.2076 52.5397C29.2999 52.3803 29.3436 52.1966 29.3436 52.0173C29.3436 51.8335 29.2999 51.6537 29.2076 51.4942C29.1158 51.3546 28.9792 51.2189 28.8432 51.1312C28.6835 51.0396 28.4994 50.9916 28.3197 50.9916ZM27.3882 59.8444H29.2358V53.9052H27.3882V59.8444ZM24.0319 57.9565C23.8721 58.1838 23.7361 58.3195 23.552 58.4353C23.3922 58.5231 23.2319 58.5711 23.0522 58.5711C22.7321 58.5711 22.5044 58.4353 22.3203 58.1402C22.1644 57.8367 22.0721 57.434 22.0721 56.8867C22.0721 56.3637 22.1644 55.9328 22.3441 55.6575C22.5044 55.3623 22.7565 55.2266 23.0959 55.2023C23.212 55.2023 23.3237 55.2266 23.416 55.2464C23.5078 55.2944 23.62 55.338 23.7123 55.4059C23.8041 55.4737 23.9158 55.5896 24.0319 55.701V57.9565ZM24.0319 59.8444H25.88V51.0832H24.0319V54.452C23.8483 54.292 23.6681 54.1562 23.5078 54.0647C23.3237 53.9731 23.1639 53.9052 23.0041 53.8611C22.8438 53.8131 22.6641 53.7932 22.48 53.7932C22.1401 53.7932 21.82 53.8809 21.5242 54.0167C21.2522 54.1761 21.0001 54.3841 20.7922 54.655C20.5882 54.9309 20.4285 55.2464 20.3168 55.6337C20.2001 56.0205 20.1327 56.4315 20.1327 56.8867C20.1327 57.3181 20.2001 57.7291 20.3168 58.1164C20.4285 58.4795 20.5882 58.8182 20.7922 59.0941C21.0001 59.3655 21.2279 59.5735 21.5242 59.733C21.7962 59.8886 22.0958 59.9603 22.4364 59.9603C22.616 59.9603 22.8001 59.9366 22.9842 59.8886C23.144 59.8444 23.3237 59.7766 23.5078 59.6612C23.6681 59.5493 23.8483 59.4334 24.0319 59.2535V59.8444ZM15.961 56.3157C15.961 55.8412 16.029 55.498 16.165 55.2464C16.2805 54.975 16.4845 54.863 16.7366 54.863C16.9649 54.863 17.1485 54.975 17.2607 55.2266C17.3967 55.4539 17.4448 55.8412 17.4647 56.3157H15.961ZM7.63741 40.6415C7.09342 41.2759 6.86565 40.845 7.09342 42.2541C7.29742 43.6665 7.52574 44.0979 7.84528 45.1914C8.18528 46.2816 8.0736 47.2631 8.50537 46.0543C8.93769 44.8681 9.25723 44.5294 9.16546 43.4629C9.05324 42.37 8.71379 41.7074 8.2776 41.1639C7.84528 40.6415 8.18528 39.9789 7.63741 40.6415ZM48.4497 8.6255C48.3336 8.73749 48.2457 8.87322 48.1539 8.98908C48.0815 9.08066 48.0141 9.16838 47.9256 9.25997C47.8537 9.37583 47.7857 9.46355 47.7222 9.57941C47.6497 9.671 47.5817 9.77913 47.5143 9.89885C47.4457 9.99044 47.3822 10.103 47.3341 10.2177C47.2622 10.3303 47.2224 10.4417 47.1699 10.5339C47.1262 10.6492 47.082 10.7612 47.0344 10.877C47.014 10.9885 46.9902 11.1005 46.9659 11.1959C46.946 11.3079 46.946 11.4238 46.946 11.5154C46.946 11.6274 46.9659 11.719 46.9902 11.8304C47.014 11.9225 47.0344 12.0141 47.1019 12.1261C47.15 12.2177 47.1942 12.3098 47.286 12.402C47.354 12.4936 47.4457 12.5857 47.5618 12.653C47.6741 12.7407 47.762 12.813 47.8819 12.8809C47.9941 12.9245 48.0815 12.9686 48.1976 12.9923C48.2899 13.0166 48.4055 13.0166 48.4939 13.0166C48.6095 13.0166 48.6974 12.9923 48.7897 12.9686C48.9052 12.9487 48.9942 12.9245 49.086 12.8809C49.2054 12.8329 49.29 12.7887 49.3862 12.7209C49.4741 12.653 49.5697 12.5857 49.6576 12.5134C49.75 12.4456 49.8616 12.354 49.9296 12.2861L50.2055 12.0141C50.2934 11.9225 50.3697 11.8304 50.4537 11.719C50.5217 11.6274 50.6135 11.5352 50.7053 11.4392C50.7733 11.3317 50.8413 11.2401 50.9336 11.1485C51.0016 11.0608 51.0735 10.9686 51.1614 10.8528C51.2332 10.7612 51.2979 10.6492 51.393 10.5339C51.4577 10.4417 51.5257 10.3303 51.5937 10.2177C51.6656 10.103 51.7374 10.0108 51.7977 9.89885C51.8696 9.77913 51.9138 9.67099 51.9619 9.55569C52.0056 9.46355 52.0536 9.3521 52.0973 9.23624C52.1178 9.12425 52.1653 9.00894 52.1852 8.92122C52.1852 8.80536 52.2134 8.71322 52.2134 8.60177C52.2134 8.51019 52.1852 8.39819 52.1653 8.30661C52.1416 8.19075 52.1178 8.09916 52.0736 8.01089C52.0293 7.9193 51.9619 7.82717 51.8933 7.73503C51.7977 7.64345 51.7137 7.55572 51.618 7.46414C51.482 7.372 51.3455 7.30414 51.2332 7.23628C51.0934 7.16897 50.9773 7.1447 50.8413 7.11656C50.7335 7.10111 50.5892 7.10111 50.4775 7.11656C50.3415 7.1447 50.2298 7.16897 50.1137 7.21256C49.9976 7.25614 49.8616 7.32842 49.75 7.39628C49.6339 7.46414 49.5222 7.55572 49.4055 7.64345C49.29 7.73503 49.1783 7.82717 49.0656 7.94303C48.95 8.0313 48.8577 8.14661 48.7455 8.25861C48.6537 8.39819 48.5415 8.51019 48.4497 8.6255ZM47.8101 13.6511C47.5817 13.5391 47.354 13.4033 47.1262 13.2196C46.878 13.0403 46.6695 12.8329 46.5098 12.653C46.3301 12.4456 46.1897 12.2657 46.078 12.0583C45.9857 11.8547 45.8983 11.6511 45.8502 11.4392C45.806 11.2401 45.7822 11.0365 45.806 10.8092C45.806 10.6017 45.8502 10.3982 45.8983 10.1703C45.9619 9.93913 46.0338 9.73886 46.146 9.51155C46.2577 9.27983 46.402 9.05694 46.5341 8.82908C46.6939 8.60177 46.8536 8.35019 47.0344 8.12288C47.2224 7.8713 47.422 7.66717 47.6061 7.46414C47.7857 7.25614 47.9941 7.07684 48.1738 6.91739C48.3579 6.73367 48.5658 6.59795 48.7654 6.48595C48.95 6.37009 49.1573 6.27851 49.3619 6.21064C49.5697 6.16706 49.7699 6.11906 49.9976 6.11906C50.2055 6.11906 50.4333 6.14278 50.6378 6.19078C50.8695 6.23492 51.0934 6.3265 51.3217 6.46223C51.5738 6.57422 51.7977 6.73367 52.0536 6.91739C52.2775 7.10111 52.4854 7.276 52.6452 7.484C52.8254 7.66717 52.9415 7.8713 53.0571 8.07875C53.145 8.25861 53.2411 8.46605 53.281 8.66963C53.3257 8.87322 53.3257 9.10052 53.3257 9.30797C53.3053 9.51155 53.2611 9.73886 53.1892 9.96671C53.145 10.1703 53.0571 10.3982 52.9415 10.6255C52.8254 10.8528 52.6894 11.0806 52.5573 11.3079C52.3975 11.5352 52.2377 11.7868 52.0293 12.0141C51.8458 12.2657 51.6656 12.4698 51.482 12.6734C51.2979 12.8809 51.0934 13.0602 50.9093 13.2196C50.7335 13.3796 50.5217 13.5153 50.3415 13.6031C50.1375 13.7228 49.9296 13.8105 49.75 13.8784C49.5415 13.9462 49.3381 13.9699 49.1098 13.9942C48.9052 13.9942 48.6974 13.97 48.4696 13.9264C48.2656 13.8585 48.0417 13.7906 47.8101 13.6511ZM42.6344 3.36877C42.6145 3.45263 42.5702 3.54862 42.5426 3.61649V3.64021L41.8582 5.41618L42.3618 5.6159C42.4309 5.64403 42.4984 5.6639 42.5702 5.68817C42.6344 5.7119 42.7306 5.73562 42.7947 5.75603C42.8903 5.75603 42.9545 5.77976 43.0225 5.77976C43.1142 5.80348 43.1822 5.80348 43.2746 5.80348C43.342 5.80348 43.4106 5.80348 43.478 5.77976C43.5742 5.77976 43.6383 5.75603 43.7063 5.71189C43.7743 5.68817 43.8418 5.6639 43.9142 5.6159C43.9778 5.57617 44.0502 5.50831 44.1182 5.46031C44.1619 5.39245 44.2343 5.32459 44.278 5.23301C44.3216 5.14087 44.3697 5.04929 44.414 4.93729C44.482 4.80157 44.5057 4.6664 44.5262 4.55054C44.5538 4.41426 44.5743 4.32268 44.5743 4.21123C44.5743 4.11523 44.5538 4.02751 44.5262 3.93538C44.5057 3.84379 44.482 3.75607 44.4383 3.68435C44.3941 3.61649 44.3216 3.54862 44.278 3.48076C44.2144 3.4129 44.1381 3.34449 44.074 3.3009C43.9778 3.22918 43.8943 3.18504 43.7981 3.14146C43.7063 3.09346 43.5941 3.04932 43.5023 3.00132C43.4106 2.98146 43.342 2.93346 43.2746 2.93346C43.2066 2.9136 43.1341 2.88988 43.0905 2.88988C43.0507 2.88988 42.9981 2.88988 42.9782 2.9136C42.9307 2.9136 42.9108 2.93346 42.8903 2.93346C42.8621 2.95388 42.8384 3.00132 42.7947 3.0256C42.7704 3.0736 42.7505 3.11718 42.7306 3.16132C42.7068 3.22918 42.6587 3.3009 42.6344 3.36877ZM40.2627 9.30797L39.1028 8.85336L39.0304 8.82908L39.0586 8.73749L41.2263 3.11718C41.2666 3.00132 41.2904 2.9136 41.3346 2.84188C41.3584 2.75416 41.3866 2.6863 41.4065 2.61843C41.4264 2.54671 41.4507 2.47885 41.4507 2.43471C41.4507 2.39058 41.4706 2.34313 41.4706 2.29513C41.4706 2.25154 41.4507 2.23113 41.4507 2.18368C41.4264 2.16327 41.4264 2.13955 41.4065 2.11527C41.3866 2.07169 41.3346 2.04741 41.3147 2.00383C41.2666 1.97955 41.2263 1.93596 41.1743 1.91169C41.1063 1.86369 41.0427 1.8201 40.9709 1.77597C40.9067 1.75224 40.8106 1.68438 40.7227 1.63638L40.6508 1.61652L40.6746 1.54866L40.7669 1.29322L40.8106 1.22977L40.8824 1.24963L43.478 2.25154C43.5504 2.27527 43.614 2.29513 43.7063 2.34313C43.7743 2.36685 43.87 2.41099 43.9579 2.43471C44.0502 2.47885 44.1619 2.52685 44.2542 2.59471C44.3697 2.6383 44.4582 2.6863 44.5743 2.75416C44.6865 2.79388 44.7783 2.8656 44.8944 2.95388C44.9823 3.0256 45.0984 3.09346 45.1901 3.18504C45.278 3.25291 45.3704 3.34449 45.4621 3.43663C45.5301 3.52821 45.5981 3.64021 45.6661 3.75607C45.738 3.84379 45.7822 3.98338 45.8259 4.09537C45.8701 4.21123 45.8983 4.3464 45.9182 4.48268C45.9182 4.61398 45.9182 4.75412 45.8983 4.91357C45.8701 5.04929 45.8259 5.20873 45.7579 5.36818C45.7181 5.52817 45.6462 5.6639 45.5583 5.77976C45.4859 5.91548 45.4185 6.00706 45.3261 6.0992C45.2382 6.19078 45.1421 6.27851 45.0304 6.34637H45.0541C44.9386 6.39437 44.8463 6.46223 44.7379 6.48595C44.6185 6.53009 44.5262 6.55381 44.414 6.57422C44.2979 6.59795 44.1862 6.61781 44.074 6.61781C43.9579 6.61781 43.8418 6.59795 43.7345 6.59795C43.6621 6.57422 43.5941 6.57422 43.5023 6.55381L44.0939 10.6255L44.1182 10.7849L43.9778 10.7413L42.7704 10.2624L42.7306 10.2382V10.1946L42.1103 6.27851L41.5862 6.07492L40.3821 9.25997L40.3307 9.32783L40.2627 9.30797ZM37.5748 8.39819L33.1029 7.85089L33.0432 7.82717V7.73503L33.7674 1.75224C33.7873 1.63638 33.8111 1.54866 33.8111 1.45708C33.8111 1.36494 33.8354 1.29322 33.8354 1.22977V1.0455C33.8354 0.977637 33.8111 0.934052 33.8111 0.909776C33.7873 0.866191 33.7873 0.841916 33.7674 0.818192C33.7436 0.774055 33.7237 0.750331 33.6994 0.726607C33.6751 0.706746 33.6314 0.68247 33.5833 0.658747C33.5429 0.638885 33.4915 0.614609 33.4235 0.590886C33.355 0.56661 33.287 0.546749 33.1952 0.523025C33.1272 0.498749 33.0432 0.478888 32.9232 0.455164L32.8552 0.430889L32.879 0.363028L32.9033 0.111998L32.9232 0.0237237L32.9912 0.0441371L38.351 0.68247L38.4389 0.706746L38.4145 0.790606L38.2586 2.43471V2.52685H38.1669L37.8468 2.47885H37.755L37.7782 2.39058C37.7782 2.23113 37.8026 2.11527 37.7782 2.00383C37.7782 1.88797 37.755 1.79252 37.7147 1.72852C37.6865 1.63638 37.6428 1.56852 37.5748 1.52494C37.5267 1.45708 37.4587 1.40908 37.3946 1.36494C37.2989 1.32135 37.2066 1.29322 37.1187 1.27336C37.0026 1.22977 36.8948 1.2055 36.7748 1.2055L35.9113 1.0935C35.819 1.0935 35.7311 1.06977 35.6586 1.06977H35.4989C35.4546 1.06977 35.4065 1.0935 35.3911 1.11391C35.3629 1.11391 35.3385 1.13763 35.3148 1.16136C35.2949 1.2055 35.2949 1.24963 35.2705 1.29322C35.2468 1.36494 35.2468 1.4328 35.2313 1.52494L34.9748 3.64021L36.2314 3.79965C36.3187 3.82393 36.4111 3.82393 36.4791 3.82393C36.5509 3.79965 36.6151 3.79965 36.6632 3.77593C36.735 3.75607 36.7748 3.75607 36.7986 3.70807C36.8428 3.68435 36.8948 3.66448 36.9108 3.64021C36.9589 3.59662 36.9827 3.54862 37.0026 3.52821C37.0269 3.48076 37.0551 3.43663 37.075 3.38863C37.0944 3.34449 37.0944 3.3009 37.1187 3.25291C37.1386 3.20932 37.1386 3.16132 37.1629 3.11718L37.1867 3.04932H37.2547L37.5748 3.09346L37.6666 3.11718L37.6428 3.18504L37.347 5.52817V5.6159H37.2547L36.9346 5.57617L36.871 5.5519V5.48404C36.8948 5.36818 36.8948 5.30087 36.8948 5.20873C36.8948 5.11715 36.871 5.04929 36.8428 4.98143C36.8229 4.91357 36.7986 4.8457 36.7748 4.80157C36.735 4.75412 36.6831 4.70998 36.6388 4.6664C36.5752 4.61398 36.5028 4.59412 36.4348 4.57426C36.3431 4.52626 36.2507 4.5064 36.1391 4.5064L34.8874 4.3464L34.5872 6.75794C34.5872 6.82581 34.5673 6.89312 34.5673 6.94111V7.10111C34.5872 7.11656 34.5872 7.16897 34.5872 7.18828C34.611 7.21256 34.611 7.23628 34.6309 7.25614C34.6552 7.25614 34.679 7.276 34.6989 7.30414C34.7271 7.30414 34.7708 7.32842 34.7907 7.32842C34.8388 7.34828 34.8874 7.34828 34.951 7.34828C34.9947 7.372 35.071 7.372 35.1345 7.39628L36.3713 7.532C36.4791 7.55572 36.5752 7.55572 36.6632 7.55572C36.735 7.55572 36.8229 7.532 36.8948 7.50772C36.9346 7.484 37.0026 7.46414 37.0551 7.41614C37.1187 7.372 37.1629 7.32842 37.2066 7.25614C37.2547 7.18828 37.2785 7.10111 37.3227 7.00898C37.3708 6.89312 37.3946 6.77781 37.4145 6.64595L37.4388 6.55381L37.5029 6.57422L37.823 6.59795L37.9148 6.61781L37.8987 6.71381L37.6666 8.30661V8.39819H37.5748ZM29.9594 7.96344L28.7316 8.12288H28.6354V8.0313L27.7713 1.13763L27.088 1.22977C26.9475 1.24963 26.8359 1.27336 26.7198 1.29322C26.6076 1.32136 26.5158 1.36494 26.4478 1.40908C26.3798 1.45708 26.3118 1.50066 26.2637 1.54866C26.2195 1.61652 26.1996 1.68438 26.152 1.75224C26.1277 1.8201 26.1078 1.91169 26.1078 2.02369C26.084 2.13955 26.084 2.25154 26.1078 2.39058V2.45458L26.016 2.47885L25.7197 2.50257L25.6279 2.52685L25.6036 2.43471L25.4676 0.818192L25.4438 0.726607L25.5356 0.706746L31.2591 0.0237237L31.3509 0V0.0915845L31.5997 1.72852L31.6235 1.8201H31.5317L31.2149 1.86369L31.1231 1.88797V1.79252C31.0994 1.66066 31.075 1.54866 31.0314 1.4328C31.007 1.32135 30.9634 1.24963 30.9153 1.16136C30.871 1.11391 30.8274 1.0455 30.7555 1.00191C30.687 0.953914 30.6195 0.934052 30.5311 0.909776C30.4393 0.886053 30.3475 0.866191 30.2353 0.866191C30.1192 0.866191 30.0036 0.866191 29.8477 0.886053L29.1838 0.977637L30.0274 7.8713L30.0556 7.96344H29.9594ZM23.3718 6.19078L21.2522 3.84379L21.2964 6.98525L23.3718 6.19078ZM21.2964 10.2382L20.6363 10.4897L20.5202 10.5339V10.3982L20.4285 3.89179V3.86752C20.4285 3.82393 20.4041 3.77593 20.4041 3.70807V3.50449L20.3842 3.32077V3.25291L20.3605 3.22918C20.3367 3.16132 20.3168 3.11718 20.2925 3.09346C20.2482 3.04932 20.2245 3.0256 20.1802 3.0256C20.1559 3.00132 20.1084 3.00132 20.0404 3.00132H19.8806C19.812 3.0256 19.7446 3.0256 19.6766 3.04932C19.6086 3.0736 19.5406 3.0736 19.4726 3.09346L19.4046 3.11718L19.3565 3.04932L19.2885 2.82202L19.2448 2.73043L19.3366 2.70616L21.2964 1.93596H21.3644L21.4081 1.97955L26.6755 8.05503L26.7679 8.14661L26.6518 8.19075L25.5599 8.60177L25.4919 8.6255L25.4676 8.57805L23.8721 6.73367L21.2964 7.73503L21.3644 10.1466V10.2177L21.2964 10.2382ZM20.1084 10.7849L16.369 13.4033L16.3048 13.4475L16.2368 13.3796L12.7451 8.39819C12.6771 8.30661 12.6334 8.21447 12.5649 8.14661C12.5173 8.07875 12.4731 8.01089 12.4289 7.96344C12.3813 7.9193 12.3371 7.89558 12.289 7.8713C12.2691 7.85089 12.221 7.82717 12.2011 7.82717H12.0612C11.9932 7.85089 11.949 7.8713 11.881 7.89558C11.745 7.94303 11.5371 8.05503 11.3094 8.17089L11.2414 8.21447L11.1971 8.14661L11.0573 7.94303L11.0131 7.8713L11.0573 7.82717L12.8612 6.25864L12.9292 6.19078L12.9729 6.27851L16.6006 11.4392H16.6205C16.6686 11.5352 16.7128 11.5992 16.7808 11.671C16.8284 11.7388 16.8527 11.7868 16.8964 11.8304C16.9168 11.8784 16.9649 11.8983 16.9848 11.9225C17.0086 11.9463 17.0329 11.9705 17.0567 11.9705H17.1247C17.1684 11.9463 17.1927 11.9463 17.2369 11.9225C17.2806 11.8983 17.3287 11.8547 17.3967 11.8304C17.4448 11.7868 17.5128 11.7388 17.6007 11.6947L18.3763 11.1281C18.4686 11.0806 18.5366 11.0365 18.5803 10.9885C18.6527 10.9206 18.7202 10.877 18.7882 10.8329C18.8324 10.7849 18.8805 10.717 18.9242 10.6735C18.9723 10.6255 18.9927 10.5576 19.0403 10.514C19.0607 10.4417 19.0845 10.3982 19.0845 10.3303C19.0845 10.2624 19.0845 10.1946 19.0607 10.1262C19.0607 10.0583 19.0403 9.96671 18.9927 9.87458C18.9485 9.77913 18.9004 9.69086 18.8086 9.57941L18.7644 9.51155L18.8324 9.46355L19.1083 9.27983L19.1763 9.23624L19.2205 9.30797L20.1327 10.6735L20.1802 10.7413L20.1084 10.7849ZM8.3937 10.5339L8.89347 9.89885L8.96091 9.83099L9.02946 9.89885L12.6533 12.813C12.7689 12.9245 12.8811 13.0166 12.9972 13.1043C13.1133 13.2196 13.225 13.3118 13.3411 13.4232C13.429 13.5153 13.5451 13.6312 13.6368 13.7426C13.7292 13.8585 13.7972 13.97 13.8607 14.0858C13.9531 14.1973 14.0012 14.333 14.0448 14.4731C14.0929 14.6088 14.1366 14.7446 14.1609 14.8803C14.1609 15.0204 14.1609 15.176 14.1366 15.3354C14.1128 15.4949 14.0691 15.6549 14.0012 15.8143C13.9531 15.9981 13.8607 16.1774 13.7491 16.3611C13.6368 16.5404 13.497 16.7241 13.3411 16.9238C13.1813 17.1357 13.021 17.2951 12.8612 17.4507C12.7009 17.5864 12.5411 17.726 12.3813 17.8182C12.2453 17.9059 12.085 17.9975 11.9252 18.0455C11.745 18.1133 11.5852 18.1575 11.4255 18.1575C11.2651 18.1812 11.1048 18.1575 10.9451 18.1332C10.7853 18.1133 10.625 18.0653 10.4652 17.9975C10.3093 17.9257 10.1451 17.8617 9.98919 17.7503C9.8051 17.6587 9.64533 17.5429 9.48556 17.4071L6.68155 15.1319C6.58978 15.064 6.52123 14.9961 6.42946 14.9481H6.45378C6.36146 14.8803 6.31779 14.8367 6.24979 14.8124C6.20169 14.7887 6.15746 14.7644 6.10992 14.7446H5.99769C5.95402 14.7446 5.90592 14.7644 5.86169 14.7887C5.8136 14.8124 5.76992 14.8367 5.70137 14.8803C5.63337 14.9283 5.56537 14.9961 5.49792 15.064C5.42937 15.1319 5.3376 15.2234 5.2215 15.3156L5.17783 15.3592L5.10983 15.3156L4.92574 15.1556L4.85774 15.1081L4.90196 15.0403L6.20169 13.0602L6.24979 12.9686L6.31779 13.0403L9.9411 15.9501C10.0329 16.0416 10.1252 16.1095 10.2374 16.2011C10.3292 16.2651 10.4414 16.3368 10.5332 16.4245C10.625 16.4968 10.7411 16.5647 10.829 16.6325C10.9451 16.68 11.0374 16.7478 11.1491 16.7925C11.2414 16.84 11.3331 16.8841 11.4454 16.9078C11.5371 16.952 11.6295 16.952 11.7212 16.9762C11.8329 16.9762 11.9252 16.9762 12.017 16.952C12.1093 16.952 12.2011 16.9078 12.3128 16.8604C12.4051 16.8157 12.4969 16.7478 12.5848 16.68C12.6771 16.5884 12.7932 16.4968 12.8811 16.3809C12.9972 16.2452 13.0646 16.1338 13.1332 15.9981C13.2006 15.8822 13.2487 15.7663 13.293 15.6786V15.6549C13.3173 15.5627 13.3411 15.4513 13.3411 15.3592C13.3411 15.2637 13.3411 15.176 13.3173 15.0883C13.293 14.9961 13.2686 14.9046 13.225 14.8124C13.1813 14.7208 13.1332 14.653 13.0646 14.5614C13.021 14.4935 12.953 14.4053 12.8811 14.333C12.817 14.2453 12.7252 14.1774 12.6533 14.1024C12.5649 14.018 12.4731 13.9462 12.3813 13.8784C12.3128 13.8105 12.221 13.7426 12.1292 13.6511L8.4136 10.6492L8.3456 10.6017L8.3937 10.5339ZM8.18528 26.8271L7.95751 27.509L7.91328 27.5736L7.84528 27.557L2.02996 25.5532C1.94206 25.5295 1.85029 25.5096 1.77787 25.4853C1.68997 25.4616 1.62197 25.4373 1.55397 25.4175C1.50642 25.4175 1.43787 25.3937 1.3942 25.3937C1.3461 25.3937 1.30187 25.3937 1.2781 25.4175C1.23387 25.4175 1.2101 25.4175 1.18633 25.4373C1.1421 25.4616 1.11778 25.4853 1.094 25.5096C1.04978 25.5295 1.02987 25.5736 1.0061 25.621C0.961875 25.6657 0.938103 25.7132 0.890006 25.7573L0.778333 25.9648C0.754008 26.0326 0.710333 26.1005 0.642334 26.1926L0.618009 26.2605L0.55001 26.2362L0.32224 26.1446L0.230469 26.1203L0.253688 26.0326L1.094 23.6178L1.11778 23.5742H1.16587L7.56941 23.4821L2.55792 19.5224L2.50983 19.5025L2.53415 19.4308L3.03392 17.9975L3.05824 17.9059L3.15001 17.9539L10.3093 20.4123L10.3972 20.4322L10.3535 20.5243L9.98919 21.5704L9.96542 21.6619L9.8731 21.6382L3.96988 19.5864L9.18923 23.7336L9.23346 23.7778L9.21356 23.8252L8.96091 24.5954L8.93769 24.6434H8.86914L2.28206 24.7113L8.11728 26.7151L8.2096 26.7592L8.18528 26.8271ZM59.2129 24.2567C59.397 26.1203 60.7166 27.0301 60.8488 29.0102C60.877 29.4648 60.9007 30.4474 60.6929 30.9898C60.5768 31.3572 60.2163 31.0141 60.1002 31.3335C59.9371 31.856 60.0566 32.4264 59.9167 32.902C59.7807 33.4046 59.5568 33.8361 59.7166 34.2907C59.9167 34.4943 60.145 34.1991 60.349 34.4264C60.349 34.5583 60.417 34.838 60.417 34.9974C59.5568 35.564 58.8691 36.3386 57.4765 36.0871C57.1127 34.5858 58.0011 32.9699 57.6805 31.5128C57.341 31.4929 56.8611 31.3771 56.4051 31.4449C55.8334 31.5365 55.2651 31.8124 54.6973 31.8797C53.9018 31.9718 53.2411 31.8124 52.6894 32.0596C52.3256 33.7439 51.3455 34.7464 50.7053 36.1786C51.3455 36.4302 51.6418 36.4302 51.9138 37.0448C51.8933 37.1568 51.8458 37.2727 51.8215 37.3803C51.0934 37.5 49.6576 37.4526 49.8616 37.5243C50.0496 37.5679 48.7654 37.3168 48.5177 36.7933C48.6537 36.4981 48.8577 36.3144 48.95 36.0192C49.0656 35.7196 49.0656 34.9296 49.2458 34.518C49.6781 33.6082 50.158 32.7227 50.2934 31.6287C49.818 31.3969 49.5896 31.2894 49.3138 30.8783C44.7545 30.6267 44.2144 29.0102 43.4106 28.8982C43.342 29.7363 43.3182 30.0116 42.9782 30.5352C42.7306 30.5589 42.4746 30.6069 42.2264 30.651C42.0423 30.5832 41.7062 30.6747 41.4706 30.4673C41.1306 30.1716 40.8824 29.5128 40.4064 29.1939C39.8066 28.7631 38.9187 28.5551 38.4626 28.08C38.0071 27.6249 37.823 27.0544 37.6666 26.735H37.2066C36.3713 27.3976 36.1391 27.4412 35.4989 28.0122C35.1589 28.2842 35.071 28.7631 34.747 29.1498C34.3589 29.6248 33.4235 29.8521 33.083 30.491C32.6274 31.3969 33.0432 32.5147 32.879 34.3387C31.7197 34.9974 31.3714 36.1549 31.4195 37.3648C31.4432 38.6812 31.5754 40.0268 31.4637 41.5038C31.399 42.0743 30.7151 42.8489 30.5753 43.5506C30.4155 44.4417 30.9634 45.2792 30.2557 45.8502C29.7355 46.0543 29.024 45.7823 28.5237 45.6223L28.4076 45.5109C28.4557 45.3514 28.3634 45.0281 28.5237 44.8681C29.0517 44.3015 29.4116 43.3476 28.8432 42.573C28.7316 42.6171 28.6354 42.6651 28.5237 42.6889C28.1356 43.7791 27.6795 44.8963 27.6358 45.9418C27.6115 46.5288 27.8597 46.9878 27.9758 47.6902C27.7475 47.8297 27.5435 47.9655 27.3157 48.1255C26.4036 48.3533 26.3118 48.0576 25.8115 48.0135C25.7639 47.7619 25.7639 47.5109 25.7639 47.283C25.7639 47.1037 26.016 47.0275 25.948 46.8764C25.5599 45.5545 26.1078 45.0083 26.5639 44.1222C26.7679 43.6869 26.8359 43.2318 26.9956 42.8009C25.3078 43.1198 23.62 42.9366 22.5044 42.1421C22.3684 41.2997 22.7565 40.9802 22.8681 40.4142C22.0245 40.5935 21.2041 40.7772 20.3605 40.9565C19.7004 40.9366 18.8324 40.845 18.1966 40.685C17.3724 40.4815 16.7808 40.2304 16.1207 40.4142C15.5049 42.1863 14.1366 43.1198 13.0646 44.4417C13.3173 45.8265 13.3411 46.92 12.8612 48.2408C13.497 48.5806 14.0448 49.0832 14.3887 49.6498C14.8448 50.4007 15.0731 51.2189 15.8006 51.8137C15.8006 52.3527 15.961 52.9954 15.6884 53.1107C14.9808 53.514 14.0448 53.4743 13.4091 53.1107C13.5213 51.3105 12.9049 50.5607 12.1292 49.8777C11.813 49.6063 11.4011 49.6498 11.1048 49.1908C11.0131 48.7401 10.9014 48.2612 10.7853 47.7862L10.5813 48.0135C10.3535 48.1492 10.013 48.1017 9.78132 48.2408C9.39765 48.4692 9.12179 48.8758 8.71379 49.1031C8.64137 50.4007 8.57337 51.6978 8.50537 52.9954C8.64137 53.7254 8.57337 54.2484 8.89347 54.7709C9.02946 55.0429 9.44133 55.1107 9.62155 55.3623C9.89742 55.701 9.8731 56.3157 9.8051 56.7945C9.60165 56.9783 9.37333 57.1587 9.16546 57.338H7.75351C7.63741 56.7945 7.59319 56.8867 7.29742 56.5915L7.09342 56.703C6.95742 56.9545 6.79765 57.2056 6.65778 57.4538L6.42946 57.338C6.31779 57.114 6.29346 56.7945 6.15746 56.5435C6.04192 56.3157 5.79369 56.1562 5.6776 55.9328C5.38183 54.9513 5.97779 54.2682 6.10992 53.2707C6.18179 52.8117 5.99769 52.0851 5.88602 51.5858C5.31383 49.4225 4.74551 47.2631 4.14955 45.0756C3.81011 42.9366 4.60564 41.3438 4.94951 39.8674C5.08551 39.2081 5.31383 38.0666 5.2215 37.7036C5.10983 37.3168 4.97383 36.9533 5.08551 36.6095C5.38183 35.5442 6.06569 35.8835 6.47756 35.1331C6.70533 34.7017 6.68155 34.1991 6.79765 33.7919C6.93365 33.2215 7.45774 32.5588 7.91328 32.0154C8.3937 31.4687 9.21356 31.062 10.0329 30.5589C11.0131 29.92 12.0413 29.2337 13.1813 28.6952C12.7932 27.2138 13.089 26.5077 14.9808 24.847C15.4805 24.4398 16.2368 24.3002 16.8527 23.8015C17.5327 23.2779 17.3967 22.2766 18.0369 21.7497C18.4686 21.4104 19.1287 21.5704 19.6561 21.39C20.4766 21.1146 20.0404 20.6159 21.4562 20.548C21.7282 20.7279 22.5281 21.0231 22.5724 21.39C22.6404 21.7778 23.0522 22.4123 23.5078 22.6159C24.0562 22.847 24.9203 22.6159 25.4201 22.5281C26.8596 22.3003 26.9475 23.3022 27.6557 23.8252C28.4319 23.8015 28.6597 23.5742 28.8432 23.1185C29.0517 22.6876 29.8234 22.4603 30.2557 22.185C30.8274 22.0051 31.4432 22.185 32.0597 22.0928C32.7872 22.0051 33.3832 21.5505 34.0676 21.39C35.1108 21.1389 36.2071 21.1146 36.8948 20.548C36.5509 20.1133 36.295 19.8854 36.2071 19.0231L36.5509 19.1356L36.5752 18.8157C36.871 18.9757 37.5267 19.5704 37.8987 19.7061C38.1431 19.8176 38.487 20.2049 38.8026 20.2291C39.1946 20.2727 39.5622 20.0013 39.8823 20.089C40.5419 20.3207 40.8106 20.8675 41.2263 21.2746C41.4264 21.5025 41.8344 21.4821 41.9981 21.7298C42.4066 22.3444 41.9743 23.0269 42.1103 23.6856C42.1103 23.7099 42.6587 24.6875 43.0706 25.781C43.4106 26.6671 43.6383 27.717 43.6383 27.717C44.5057 28.4872 49.0418 30.5153 49.6339 29.6728C49.7301 29.2855 49.9739 29.1939 50.0695 28.8066C50.2934 27.8522 50.3177 26.7151 50.5018 25.6889C50.6616 24.7554 50.9574 23.9129 51.1614 23.0506C51.7137 22.073 52.2576 21.0948 52.8011 20.1133C53.4015 18.6799 53.3495 17.2035 54.1014 15.9981C54.5613 15.2637 55.7892 14.9046 56.153 14.2618C57.0209 12.765 56.2055 11.0608 58.5534 10.5576C61.1445 10.0346 61.9445 14.1024 59.6408 14.7887C60.0566 16.3131 60.349 17.1798 60.2567 18.0852C60.145 19.251 59.5568 20.3886 59.3688 22.2087C60.145 22.7074 60.7808 22.7753 60.8488 24.0288C60.7609 24.1645 60.6929 24.324 60.6249 24.4597C60.3767 24.4117 60.1207 24.5275 59.8686 24.484C59.6408 24.4398 59.4368 24.2804 59.2129 24.2567ZM18.9927 58.2516C18.8086 58.3636 18.6284 58.4552 18.4443 58.5231C18.2845 58.5953 18.1049 58.6588 17.9446 58.6831C17.7848 58.7068 17.6245 58.7305 17.4647 58.7305C17.0086 58.7305 16.6686 58.5953 16.4165 58.3195C16.165 58.0685 16.0046 57.6773 15.961 57.1587H19.1763C19.1763 56.5915 19.1287 56.0883 18.9927 55.6575C18.8805 55.2464 18.6964 54.8834 18.4686 54.6114C18.2647 54.34 17.9888 54.1325 17.6925 53.9968C17.3967 53.8611 17.0766 53.7932 16.7366 53.7932C16.3491 53.7932 15.9847 53.8809 15.6646 54.0409C15.3445 54.2004 15.0731 54.4277 14.8448 54.703C14.5932 54.9987 14.4086 55.338 14.2969 55.7253C14.1609 56.1126 14.0929 56.5237 14.0929 56.9987C14.0929 57.2503 14.1128 57.5018 14.1609 57.7727C14.2051 58.0243 14.2969 58.2958 14.4086 58.5473C14.549 58.8182 14.7088 59.0499 14.9128 59.2739C15.1168 59.4814 15.3888 59.6414 15.7089 59.7766C16.029 59.8886 16.3927 59.9603 16.8527 59.9603C17.2165 59.9603 17.6007 59.9123 17.9446 59.8207C18.3089 59.733 18.6527 59.5735 18.9927 59.3655V58.2516Z" fill="white"/>
</g>
<defs>
<clipPath id="clip0_4672_45438">
<rect width="60.7692" height="60" fill="white" transform="translate(0.230469)"/>
</clipPath>
</defs>
</svg>
