<svg width="120" height="120" viewBox="0 0 120 120" fill="none" xmlns="http://www.w3.org/2000/svg">
<g clip-path="url(#clip0_2555_81918)">
<path d="M104.5 46.5957L110.995 57.8457H98.0048L104.5 46.5957Z" fill="#FFC700"/>
<path d="M91.5 43.5957L99.7272 57.8457H83.2728L91.5 43.5957Z" fill="#FFC700"/>
<path d="M72.5 29.5957L99.7798 76.8457H45.2202L72.5 29.5957Z" fill="#FFC700"/>
<path d="M70.9102 14.5575L83.9005 14.5575L77.4053 25.8075L70.9102 14.5575Z" fill="#FFC700"/>
<path d="M61.8125 24.3157L78.267 24.3157L70.0397 38.5657L61.8125 24.3157Z" fill="#FFC700"/>
<path d="M40.1875 33.77L94.7471 33.77L67.4673 81.02L40.1875 33.77Z" fill="#FFC700"/>
<path d="M26.4102 27.6513L32.9053 16.4013L39.4005 27.6513L26.4102 27.6513Z" fill="#FFC700"/>
<path d="M30.3125 40.4095L38.5397 26.1595L46.767 40.4095L30.3125 40.4095Z" fill="#FFC700"/>
<path d="M27.6875 63.8638L54.9673 16.6138L82.2471 63.8638L27.6875 63.8638Z" fill="#FFC700"/>
<path d="M93.5078 27.6513L87.0126 16.4013L80.5174 27.6513L93.5078 27.6513Z" fill="#FFC700"/>
<path d="M89.6055 40.4095L81.3782 26.1595L73.151 40.4095L89.6055 40.4095Z" fill="#FFC700"/>
<path d="M92.2305 63.8638L64.9507 16.6138L37.6709 63.8638L92.2305 63.8638Z" fill="#FFC700"/>
<path d="M49.0078 14.5575L36.0174 14.5575L42.5126 25.8075L49.0078 14.5575Z" fill="#FFC700"/>
<path d="M58.1055 24.3157L41.651 24.3157L49.8782 38.5657L58.1055 24.3157Z" fill="#FFC700"/>
<path d="M79.7305 33.77L25.1709 33.77L52.4507 81.02L79.7305 33.77Z" fill="#FFC700"/>
<path d="M15.5 46.6426L9.00481 57.8926L21.9952 57.8926L15.5 46.6426Z" fill="#FFC700"/>
<path d="M28.5 43.6426L20.2728 57.8926L36.7272 57.8926L28.5 43.6426Z" fill="#FFC700"/>
<path d="M47.5 29.6426L20.2202 76.8926L74.7798 76.8926L47.5 29.6426Z" fill="#FFC700"/>
<path d="M104.5 72.1895L110.995 60.9395H98.0048L104.5 72.1895Z" fill="#FFC700"/>
<path d="M91.5 75.1895L99.7272 60.9395H83.2728L91.5 75.1895Z" fill="#FFC700"/>
<path d="M72.5 89.1895L99.7798 41.9395H45.2202L72.5 89.1895Z" fill="#FFC700"/>
<path d="M70.9102 104.228L83.9005 104.228L77.4053 92.9776L70.9102 104.228Z" fill="#FFC700"/>
<path d="M61.8125 94.4694L78.267 94.4694L70.0397 80.2194L61.8125 94.4694Z" fill="#FFC700"/>
<path d="M40.1875 85.0152L94.7471 85.0152L67.4673 37.7652L40.1875 85.0152Z" fill="#FFC700"/>
<path d="M26.4102 91.1339L32.9053 102.384L39.4005 91.1339L26.4102 91.1339Z" fill="#FFC700"/>
<path d="M30.3125 78.3757L38.5397 92.6257L46.767 78.3757L30.3125 78.3757Z" fill="#FFC700"/>
<path d="M27.6875 54.9214L54.9673 102.171L82.2471 54.9214L27.6875 54.9214Z" fill="#FFC700"/>
<path d="M93.5078 91.1339L87.0126 102.384L80.5174 91.1339L93.5078 91.1339Z" fill="#FFC700"/>
<path d="M89.6055 78.3757L81.3782 92.6257L73.151 78.3757L89.6055 78.3757Z" fill="#FFC700"/>
<path d="M92.2305 54.9214L64.9507 102.171L37.6709 54.9214L92.2305 54.9214Z" fill="#FFC700"/>
<path d="M49.0078 104.228L36.0174 104.228L42.5126 92.9776L49.0078 104.228Z" fill="#FFC700"/>
<path d="M58.1055 94.4694L41.651 94.4694L49.8782 80.2194L58.1055 94.4694Z" fill="#FFC700"/>
<path d="M79.7305 85.0151L25.1709 85.0151L52.4507 37.7652L79.7305 85.0151Z" fill="#FFC700"/>
<path d="M15.5 72.1426L9.00481 60.8926L21.9952 60.8926L15.5 72.1426Z" fill="#FFC700"/>
<path d="M28.5 75.1426L20.2728 60.8926L36.7272 60.8926L28.5 75.1426Z" fill="#FFC700"/>
<path d="M47.5 89.1426L20.2202 41.8926L74.7798 41.8926L47.5 89.1426Z" fill="#FFC700"/>
</g>
<path d="M50.8551 90V89.16L51.6651 88.14C52.9451 86.52 53.8151 85.45 53.8151 84.44C53.8151 83.74 53.5151 83.39 52.9151 83.39C52.2751 83.39 51.9951 83.87 51.9951 84.83V84.9H50.9151V84.84C50.9151 83.37 51.5551 82.62 53.0051 82.62C54.2351 82.62 54.9751 83.17 54.9751 84.37C54.9751 85.55 54.0651 86.7 52.8451 88.27L52.1751 89.11H55.0151V90H50.8551ZM58.0182 89.35C59.0082 89.35 59.0982 88.37 59.0982 86.65V86.09C59.0982 84.37 59.0082 83.39 58.0182 83.39C57.0182 83.39 56.9282 84.37 56.9282 86.09V86.65C56.9282 88.37 57.0182 89.35 58.0182 89.35ZM58.0182 90.13C56.3082 90.13 55.7682 89.08 55.7682 86.84V85.9C55.7682 83.65 56.3082 82.62 58.0182 82.62C59.7182 82.62 60.2682 83.65 60.2682 85.9V86.84C60.2682 89.08 59.7182 90.13 58.0182 90.13ZM61.0309 90V89.16L61.8409 88.14C63.1209 86.52 63.9909 85.45 63.9909 84.44C63.9909 83.74 63.6909 83.39 63.0909 83.39C62.4509 83.39 62.1709 83.87 62.1709 84.83V84.9H61.0909V84.84C61.0909 83.37 61.7309 82.62 63.1809 82.62C64.4109 82.62 65.1509 83.17 65.1509 84.37C65.1509 85.55 64.2409 86.7 63.0209 88.27L62.3509 89.11H65.1909V90H61.0309ZM67.8639 90.13C66.6239 90.13 65.8239 89.5 65.8239 88.11V88.07H66.8939V88.11C66.8939 88.86 67.1539 89.35 67.8839 89.35C68.7939 89.35 68.9839 88.75 68.9839 88C68.9839 87.17 68.7039 86.64 67.6539 86.64H67.2439V85.84H67.6239C68.4339 85.84 68.7639 85.41 68.7639 84.58C68.7639 83.82 68.5139 83.38 67.8339 83.38C67.1639 83.38 66.9639 83.76 66.9639 84.6V84.64H65.8939V84.6C65.8939 83.23 66.6739 82.62 67.8739 82.62C69.0339 82.62 69.9339 83.06 69.9339 84.48C69.9339 85.43 69.4539 85.98 68.8239 86.15C69.6639 86.38 70.1539 86.96 70.1539 87.99C70.1539 89.5 69.3139 90.13 67.8639 90.13Z" fill="white"/>
<path d="M36.3923 72.096C36.3923 73.592 37.2163 74.416 38.2803 74.416C39.3363 74.416 40.1683 73.592 40.1683 72.096C40.1683 70.6 39.3363 69.784 38.2803 69.784C37.2163 69.784 36.3923 70.6 36.3923 72.096ZM41.0003 72.096C41.0003 73.848 39.9443 75.104 38.2803 75.104C36.6163 75.104 35.5603 73.848 35.5603 72.096C35.5603 70.344 36.6163 69.096 38.2803 69.096C39.9443 69.096 41.0003 70.344 41.0003 72.096ZM42.0982 75V69.2H45.8662V69.904H42.9142V71.664H45.6982V72.368H42.9142V75H42.0982ZM49.6732 75V69.904H47.7852V69.2H52.3772V69.904H50.4892V75H49.6732ZM56.9309 69.2H57.7469V75H56.9309V72.368H53.8829V75H53.0669V69.2H53.8829V71.664H56.9309V69.2ZM59.1216 75V69.2H63.0576V69.904H59.9376V71.664H62.8736V72.368H59.9376V74.296H63.0576V75H59.1216ZM65.2383 69.2H66.1343L67.7183 72.032L69.3343 69.2H70.2303L68.1023 72.752V75H67.2863V72.736L65.2383 69.2ZM70.9185 75V69.2H74.8545V69.904H71.7345V71.664H74.6705V72.368H71.7345V74.296H74.8545V75H70.9185ZM75.1367 75L77.2887 69.2H78.2327L80.4167 75H79.5367L79.0807 73.744H76.4167L75.9687 75H75.1367ZM77.7367 70.024L76.6647 73.048H78.8247L77.7367 70.024ZM84.642 75L83.386 72.552C83.234 72.56 83.098 72.56 82.946 72.56H81.922V75H81.106V69.2H82.946C84.354 69.2 85.362 69.48 85.362 70.872C85.362 71.792 84.922 72.232 84.21 72.424L85.554 75H84.642ZM83.01 69.888H81.922V71.872H83.01C83.866 71.872 84.522 71.784 84.522 70.888C84.522 69.992 83.866 69.888 83.01 69.888Z" fill="black"/>
<path d="M40.2863 65V54.85H44.7103C46.9363 54.85 48.5883 55.354 48.5883 57.482C48.5883 58.392 48.1823 59.106 47.3843 59.596C48.3363 59.932 48.9943 60.646 48.9943 61.878C48.9943 64.16 47.3563 65 44.8923 65H40.2863ZM42.6803 60.688V62.984H44.9203C45.9423 62.984 46.4603 62.55 46.4603 61.836C46.4603 61.122 45.9423 60.688 44.9203 60.688H42.6803ZM42.6803 56.866V58.91H44.7943C45.6343 58.91 46.0963 58.504 46.0963 57.874C46.0963 57.244 45.6343 56.866 44.7943 56.866H42.6803ZM52.1984 59.932C52.1984 62.088 53.4304 63.208 54.9284 63.208C56.4264 63.208 57.6584 62.088 57.6584 59.932C57.6584 57.776 56.4264 56.656 54.9284 56.656C53.4304 56.656 52.1984 57.776 52.1984 59.932ZM60.1924 59.932C60.1924 63.096 58.0364 65.182 54.9284 65.182C51.8064 65.182 49.6644 63.096 49.6644 59.932C49.6644 56.768 51.8064 54.682 54.9284 54.682C58.0364 54.682 60.1924 56.768 60.1924 59.932ZM63.6145 59.932C63.6145 62.088 64.8465 63.208 66.3445 63.208C67.8425 63.208 69.0745 62.088 69.0745 59.932C69.0745 57.776 67.8425 56.656 66.3445 56.656C64.8465 56.656 63.6145 57.776 63.6145 59.932ZM71.6085 59.932C71.6085 63.096 69.4525 65.182 66.3445 65.182C63.2225 65.182 61.0805 63.096 61.0805 59.932C61.0805 56.768 63.2225 54.682 66.3445 54.682C69.4525 54.682 71.6085 56.768 71.6085 59.932ZM74.8912 65V56.95H71.6432V54.85H80.5612V56.95H77.2992V65H74.8912Z" fill="black"/>
<path d="M74.5385 46.8596V45.6793C74.4398 45.6507 74.3521 45.6336 74.2699 45.6336C74.1137 45.6336 73.9657 45.6565 73.8204 45.7049C73.6752 45.7534 73.5409 45.819 73.4148 45.9073C73.2887 45.9929 73.1764 46.0984 73.0777 46.221C72.979 46.3435 72.9023 46.4747 72.8448 46.6172H72.8283V45.7591H71.6635V50.3835H72.8886V48.3022C72.8886 48.0941 72.9078 47.9002 72.9489 47.7206C72.99 47.541 73.0558 47.3842 73.1517 47.2502C73.2476 47.1162 73.371 47.0107 73.5272 46.9337C73.6834 46.8567 73.8725 46.8168 74.0972 46.8168C74.1712 46.8168 74.2507 46.8225 74.3302 46.8311C74.4097 46.8396 74.4782 46.851 74.5385 46.8624M71.2853 48.382C71.3073 48.0257 71.2799 47.6807 71.1976 47.3528C71.1182 47.0249 70.9866 46.7341 70.8057 46.4775C70.6248 46.221 70.3919 46.0185 70.1096 45.8646C69.8273 45.7135 69.4985 45.6365 69.1175 45.6365C68.7777 45.6365 68.468 45.6992 68.1912 45.8247C67.9116 45.9501 67.6732 46.1212 67.4704 46.3378C67.2703 46.5574 67.1141 46.814 67.0045 47.1105C66.8949 47.4098 66.84 47.7292 66.84 48.077C66.84 48.4248 66.8921 48.7641 66.999 49.0606C67.1059 49.3571 67.2566 49.6137 67.4512 49.8304C67.6458 50.0442 67.8842 50.2096 68.1665 50.3264C68.4488 50.4433 68.764 50.5004 69.1148 50.5004C69.6218 50.5004 70.0521 50.3806 70.4083 50.144C70.7646 49.9045 71.0305 49.5082 71.2031 48.9551H70.1261C70.0849 49.0976 69.9753 49.2345 69.7972 49.3628C69.619 49.4911 69.4053 49.5538 69.1586 49.5538C68.8133 49.5538 68.5502 49.4626 68.3638 49.2773C68.1802 49.0919 68.0788 48.7954 68.0624 48.382H71.2799H71.2853ZM70.0603 47.578H68.0678C68.0733 47.4868 68.0925 47.387 68.1254 47.273C68.1555 47.1589 68.2104 47.0535 68.2898 46.9508C68.3666 46.851 68.4707 46.7655 68.5995 46.6971C68.7283 46.6287 68.89 46.5944 69.0874 46.5944C69.3861 46.5944 69.6081 46.6771 69.7561 46.8453C69.9041 47.0107 70.0055 47.2559 70.063 47.578M66.3796 49.0178C66.4591 48.7327 66.5002 48.4334 66.5002 48.1254C66.5002 47.7976 66.4591 47.484 66.3796 47.1818C66.3001 46.8824 66.1741 46.6172 66.0096 46.392C65.8425 46.1639 65.6314 45.9843 65.3793 45.8475C65.1272 45.7106 64.8229 45.6422 64.4721 45.6422C64.1953 45.6422 63.9432 45.6992 63.713 45.8133C63.4828 45.9273 63.2937 46.1069 63.1429 46.3578H63.1265V45.7676H61.9617V52H63.1868V49.8104H63.2032C63.354 50.0356 63.5431 50.2096 63.776 50.3236C64.009 50.4405 64.2639 50.4975 64.5407 50.4975C64.8695 50.4975 65.1546 50.4319 65.3985 50.3008C65.6424 50.1696 65.8479 49.9929 66.0096 49.7733C66.1741 49.5538 66.2947 49.3001 66.3769 49.0121M65.2724 48.0827C65.2724 48.268 65.256 48.4505 65.2203 48.6272C65.1847 48.8068 65.1272 48.9608 65.0422 49.0976C64.9572 49.2316 64.8503 49.34 64.7133 49.4227C64.579 49.5053 64.4091 49.5481 64.209 49.5481C64.009 49.5481 63.8473 49.5053 63.7075 49.4227C63.5705 49.34 63.4581 49.2316 63.3759 49.0976C63.2909 48.9636 63.2306 48.8068 63.195 48.6272C63.1566 48.4476 63.1375 48.268 63.1375 48.0827C63.1375 47.8974 63.1539 47.7063 63.1895 47.5296C63.2252 47.35 63.2827 47.1932 63.3649 47.0563C63.4499 46.9195 63.5568 46.8083 63.6938 46.7227C63.8281 46.6372 63.998 46.5944 64.1981 46.5944C64.3981 46.5944 64.5598 46.6372 64.6941 46.7227C64.8284 46.8083 64.9408 46.9223 65.0257 47.062C65.1134 47.2017 65.1737 47.3614 65.2121 47.541C65.2505 47.7206 65.2669 47.9031 65.2669 48.0855M60.2817 50.3835H61.5068V44H60.2817V50.3835ZM58.7278 50.3835H59.9693C59.9117 50.2894 59.8706 50.144 59.8487 49.953C59.8268 49.7619 59.8131 49.5624 59.8131 49.3542V46.9508C59.8131 46.6714 59.7528 46.4462 59.6322 46.2751C59.5116 46.1069 59.3554 45.9729 59.1663 45.876C58.9772 45.7819 58.7662 45.7163 58.5359 45.685C58.3057 45.6507 58.0783 45.6365 57.8535 45.6365C57.6069 45.6365 57.3602 45.6622 57.1163 45.7135C56.8724 45.7648 56.6531 45.8475 56.4558 45.9672C56.2612 46.087 56.0995 46.2438 55.9735 46.4405C55.8474 46.6372 55.7761 46.8852 55.757 47.1818H56.982C57.0039 46.9309 57.0862 46.7512 57.2232 46.6458C57.3602 46.5374 57.5521 46.4833 57.7932 46.4833C57.9029 46.4833 58.0043 46.4918 58.1002 46.5061C58.1934 46.5203 58.2783 46.5517 58.3496 46.5944C58.4208 46.6401 58.4784 46.7028 58.5222 46.7826C58.5661 46.8624 58.588 46.9708 58.588 47.1076C58.5935 47.2388 58.5551 47.3386 58.4757 47.407C58.3962 47.4754 58.2866 47.5267 58.1468 47.5638C58.0097 47.6009 57.8508 47.6265 57.6727 47.6436C57.4945 47.6607 57.3136 47.6864 57.13 47.7149C56.9464 47.7434 56.7628 47.7862 56.5819 47.8346C56.401 47.886 56.2393 47.9629 56.0995 48.0627C55.9598 48.1654 55.8447 48.2994 55.7542 48.4704C55.6638 48.6415 55.6199 48.8553 55.6199 49.1176C55.6199 49.3571 55.6583 49.5624 55.735 49.7334C55.8118 49.9073 55.9214 50.0499 56.0584 50.1639C56.1955 50.278 56.3572 50.3607 56.5408 50.4148C56.7244 50.469 56.9245 50.4947 57.1355 50.4947C57.4123 50.4947 57.6809 50.4519 57.9467 50.3692C58.2098 50.2865 58.4428 50.1411 58.6374 49.9301C58.6428 50.0071 58.6538 50.0841 58.6675 50.1582C58.6812 50.2324 58.7004 50.3065 58.7251 50.3778M58.588 48.5902C58.588 48.6614 58.5798 48.7584 58.5661 48.8753C58.5524 48.995 58.514 49.1119 58.4482 49.2288C58.3852 49.3457 58.2866 49.4455 58.155 49.5282C58.0235 49.6108 57.8343 49.6536 57.5932 49.6536C57.4945 49.6536 57.4013 49.645 57.3081 49.6279C57.2177 49.6108 57.1355 49.5795 57.067 49.5339C56.9985 49.4882 56.9436 49.4284 56.9025 49.3514C56.8614 49.2744 56.8422 49.1775 56.8422 49.0663C56.8422 48.9551 56.8614 48.8496 56.9025 48.7726C56.9436 48.6957 56.9957 48.6301 57.0615 48.5816C57.1273 48.5303 57.2067 48.4904 57.2944 48.4619C57.3849 48.4305 57.4753 48.4077 57.5658 48.3906C57.6644 48.3735 57.7604 48.3592 57.859 48.345C57.9577 48.3336 58.0509 48.3193 58.1386 48.2994C58.2263 48.2823 58.3112 48.2594 58.388 48.2309C58.4674 48.2053 58.5305 48.1682 58.5825 48.1197V48.593L58.588 48.5902ZM54.1372 50.3778H55.3623V45.7619H54.1372V50.3835V50.3778ZM54.1372 45.0406H55.3623V44H54.1372V45.0463V45.0406ZM53.844 50.3778L51.9722 47.4555L53.6549 45.7562H52.2051L50.6621 47.4184V44H49.4371V50.3835H50.6621V48.7926L51.1363 48.3193L52.3613 50.3835H53.8467L53.844 50.3778ZM48.9492 49.6593C49.0671 49.454 49.1246 49.2003 49.1246 48.8952C49.1246 48.6814 49.0835 48.5018 49.0041 48.3535C48.9246 48.2081 48.8177 48.0855 48.6861 47.9886C48.5546 47.8917 48.4039 47.8118 48.2339 47.752C48.064 47.6921 47.8914 47.6408 47.7132 47.6009C47.5406 47.5581 47.3706 47.521 47.2035 47.484C47.0363 47.4498 46.8883 47.407 46.7595 47.3642C46.6307 47.3186 46.5265 47.2616 46.4443 47.1903C46.3648 47.119 46.3237 47.0278 46.3237 46.9138C46.3237 46.8197 46.3456 46.7427 46.3922 46.6857C46.4388 46.6287 46.4936 46.5859 46.5594 46.5574C46.6252 46.5289 46.6992 46.5089 46.7787 46.5004C46.8581 46.4918 46.9349 46.4861 47.0034 46.4861C47.2226 46.4861 47.4118 46.5289 47.5734 46.6172C47.7351 46.7028 47.8228 46.8681 47.842 47.1133H49.0068C48.9849 46.8282 48.9136 46.5916 48.7958 46.4034C48.6779 46.2153 48.5299 46.067 48.3518 45.953C48.1736 45.8389 47.9708 45.7591 47.7434 45.7106C47.5159 45.6622 47.2802 45.6393 47.039 45.6393C46.7979 45.6393 46.5622 45.6622 46.3319 45.7049C46.1017 45.7505 45.8934 45.8275 45.7098 45.9387C45.5262 46.0499 45.3782 46.1981 45.2658 46.3892C45.1535 46.5802 45.0987 46.8254 45.0987 47.1219C45.0987 47.3243 45.1398 47.4954 45.2193 47.6351C45.3015 47.7748 45.4056 47.8917 45.5399 47.9829C45.6715 48.077 45.8222 48.1511 45.9921 48.2081C46.162 48.2651 46.3347 48.3136 46.5128 48.3564C46.9513 48.4533 47.2912 48.5474 47.5351 48.6415C47.779 48.7356 47.9023 48.881 47.9023 49.0691C47.9023 49.1832 47.8777 49.2773 47.8256 49.3514C47.7735 49.4255 47.7105 49.4854 47.631 49.531C47.5543 49.5766 47.4666 49.608 47.3734 49.6279C47.2775 49.6479 47.187 49.6593 47.1021 49.6593C46.9815 49.6593 46.8664 49.645 46.754 49.6137C46.6416 49.5852 46.543 49.5367 46.4553 49.4768C46.3703 49.4141 46.2991 49.3343 46.2442 49.2345C46.1894 49.1347 46.162 49.0178 46.162 48.881H45C45.011 49.1917 45.0795 49.4483 45.2028 49.6536C45.3261 49.8589 45.4851 50.0242 45.6769 50.1497C45.8688 50.2751 46.0908 50.3635 46.3374 50.4177C46.5841 50.4718 46.839 50.4975 47.0966 50.4975C47.3542 50.4975 47.5981 50.4718 47.842 50.4205C48.0859 50.3692 48.3025 50.2808 48.4943 50.1582C48.6834 50.0328 48.8369 49.8674 48.9547 49.6622" fill="black"/>
<path d="M49.0729 37V29.75H50.2629V36.1H52.8829V37H49.0729ZM53.6041 37V29.75H54.7941V37H53.6041ZM58.0643 37.13C56.4743 37.13 55.8343 36.05 55.8343 33.84V32.9C55.8343 30.65 56.4843 29.62 58.2743 29.62C59.7643 29.62 60.5443 30.43 60.5443 31.92V31.96H59.3643V31.92C59.3643 30.87 59.0043 30.46 58.2743 30.46C57.2343 30.46 57.0843 31.44 57.0843 33.16V33.58C57.0843 35.3 57.2343 36.28 58.2743 36.28C59.1843 36.28 59.5343 35.64 59.5343 34.37V34.09H58.0243V33.26H60.5743V37H59.7043L59.6743 36.1C59.4243 36.7 58.9343 37.13 58.0643 37.13ZM61.7584 37V29.75H62.9484V32.82H65.1084V29.75H66.2984V37H65.1084V33.72H62.9484V37H61.7584ZM68.6682 37V30.65H67.0182V29.75H71.5082V30.65H69.8582V37H68.6682Z" fill="white"/>
<defs>
<clipPath id="clip0_2555_81918">
<rect width="120" height="120" fill="white"/>
</clipPath>
</defs>
</svg>
